<svg width="181" height="60" viewBox="0 0 181 60" fill="none" xmlns="http://www.w3.org/2000/svg">
<g clip-path="url(#clip0_1_4476)">
<path d="M95.5954 15.0751C95.5954 17.2372 93.9646 18.979 91.9403 18.979C89.9159 18.979 88.2851 17.2372 88.2851 15.0751C88.2851 12.9129 89.8597 11.1712 91.9403 11.1712C94.0209 11.2312 95.5954 12.973 95.5954 15.0751ZM80.5251 22.9429C80.5251 23.3033 80.5251 23.9039 80.5251 23.9039C80.5251 23.9039 78.7818 21.5015 75.0705 21.5015C68.9411 21.5015 64.1614 26.4865 64.1614 33.3934C64.1614 40.2402 68.8849 45.2853 75.0705 45.2853C78.8381 45.2853 80.5251 42.8228 80.5251 42.8228V43.8438C80.5251 44.3243 80.8625 44.6847 81.3123 44.6847H85.8671V22.1021C85.8671 22.1021 81.7059 22.1021 81.3123 22.1021C80.8625 22.1021 80.5251 22.5225 80.5251 22.9429ZM80.5251 37.4174C79.6816 38.7387 77.9946 39.8799 75.9702 39.8799C72.3713 39.8799 69.6159 37.4775 69.6159 33.3934C69.6159 29.3093 72.3713 26.9069 75.9702 26.9069C77.9384 26.9069 79.7378 28.1081 80.5251 29.3694V37.4174ZM89.2411 22.1021H94.6394V44.6847H89.2411V22.1021ZM169.879 21.5015C166.167 21.5015 164.424 23.9039 164.424 23.9039V11.2312H159.026V44.6847C159.026 44.6847 163.187 44.6847 163.581 44.6847C164.03 44.6847 164.368 44.2643 164.368 43.8438V42.8228C164.368 42.8228 166.111 45.2853 169.822 45.2853C175.952 45.2853 180.731 40.2402 180.731 33.3934C180.731 26.5465 175.952 21.5015 169.879 21.5015ZM168.979 39.8198C166.898 39.8198 165.268 38.6787 164.424 37.3573V29.3093C165.268 28.1081 167.067 26.8468 168.979 26.8468C172.578 26.8468 175.333 29.2492 175.333 33.3333C175.333 37.4174 172.578 39.8198 168.979 39.8198ZM156.214 31.2913V44.7447H150.816V31.9519C150.816 28.2282 149.691 26.7267 146.655 26.7267C145.024 26.7267 143.337 27.6276 142.268 28.9489V44.6847H136.87V22.1021H141.144C141.594 22.1021 141.931 22.5225 141.931 22.9429V23.9039C143.506 22.1622 145.586 21.5015 147.667 21.5015C150.028 21.5015 151.997 22.2222 153.571 23.6637C155.483 25.3453 156.214 27.5075 156.214 31.2913ZM123.768 21.5015C120.057 21.5015 118.313 23.9039 118.313 23.9039V11.2312H112.915V44.6847C112.915 44.6847 117.076 44.6847 117.47 44.6847C117.92 44.6847 118.257 44.2643 118.257 43.8438V42.8228C118.257 42.8228 120 45.2853 123.712 45.2853C129.841 45.2853 134.621 40.2402 134.621 33.3934C134.677 26.5465 129.897 21.5015 123.768 21.5015ZM122.868 39.8198C120.788 39.8198 119.157 38.6787 118.313 37.3573V29.3093C119.157 28.1081 120.956 26.8468 122.868 26.8468C126.467 26.8468 129.222 29.2492 129.222 33.3333C129.222 37.4174 126.467 39.8198 122.868 39.8198ZM108.248 21.5015C109.878 21.5015 110.722 21.8018 110.722 21.8018V27.1471C110.722 27.1471 106.223 25.5255 103.412 28.9489V44.7447H98.0134V22.1021C98.0134 22.1021 102.175 22.1021 102.568 22.1021C103.018 22.1021 103.355 22.5225 103.355 22.9429V23.9039C104.368 22.6426 106.561 21.5015 108.248 21.5015ZM52.1838 42.6426C51.9027 41.9219 51.6215 41.1411 51.3404 40.4805C50.8905 39.3994 50.4406 38.3784 50.047 37.4174L49.9908 37.3573C46.1107 28.3483 41.9495 19.2192 37.5634 10.2102L37.3947 9.84985C36.9448 8.94895 36.495 7.98799 36.0451 7.02703C35.4828 5.94594 34.9205 4.8048 34.0207 3.72372C32.2213 1.32132 29.6346 0 26.8792 0C24.0676 0 21.5371 1.32132 19.6814 3.6036C18.8379 4.68468 18.2194 5.82582 17.6571 6.90691C17.2072 7.86787 16.7573 8.82883 16.3075 9.72973L16.1388 10.0901C11.8089 19.0991 7.59144 28.2282 3.71139 37.2372L3.65516 37.3573C3.26153 38.3183 2.81167 39.3393 2.36181 40.4204C2.08065 41.0811 1.79948 41.8018 1.51832 42.5826C0.787298 44.8048 0.562368 46.9069 0.843531 49.0691C1.46209 53.5736 4.27372 57.3573 8.15376 59.039C9.61581 59.6997 11.1341 60 12.7086 60C13.1585 60 13.7208 59.9399 14.1706 59.8799C16.0263 59.6396 17.9382 58.979 19.7939 57.8378C22.0994 56.4564 24.2925 54.4745 26.7667 51.5916C29.241 54.4745 31.4903 56.4564 33.7396 57.8378C35.5952 58.979 37.5072 59.6396 39.3628 59.8799C39.8127 59.9399 40.375 60 40.8249 60C42.3994 60 43.9739 59.6997 45.3797 59.039C49.316 57.3573 52.0714 53.5135 52.6899 49.0691C53.1398 46.967 52.9149 44.8649 52.1838 42.6426ZM26.823 45.7658C23.7864 41.6817 21.8183 37.8378 21.1435 34.5946C20.8623 33.2132 20.8061 32.012 20.9748 30.9309C21.0873 29.97 21.4246 29.1291 21.8745 28.4084C22.9429 26.7868 24.7424 25.7658 26.823 25.7658C28.9036 25.7658 30.7593 26.7267 31.7714 28.4084C32.2213 29.1291 32.5587 29.97 32.6712 30.9309C32.8399 32.012 32.7836 33.2733 32.5025 34.5946C31.8277 37.7778 29.8595 41.6216 26.823 45.7658ZM49.2598 48.5886C48.8661 51.7117 46.898 54.4144 44.1426 55.6156C42.793 56.2162 41.331 56.3964 39.8689 56.2162C38.4631 56.036 37.0573 55.5555 35.5952 54.6546C33.5709 53.4534 31.5465 51.5916 29.1847 48.8288C32.8961 43.964 35.1454 39.5195 35.9889 35.5555C36.3825 33.6937 36.4387 32.012 36.27 30.4504C36.0451 28.9489 35.539 27.5676 34.7518 26.3664C33.0086 23.6637 30.0845 22.1021 26.823 22.1021C23.5615 22.1021 20.6374 23.7237 18.8942 26.3664C18.1069 27.5676 17.6008 28.9489 17.3759 30.4504C17.151 32.012 17.2072 33.7537 17.6571 35.5555C18.5006 39.5195 20.8061 44.024 24.4612 48.8889C22.1557 51.6516 20.0751 53.5135 18.0507 54.7147C16.5886 55.6156 15.1828 56.0961 13.777 56.2763C12.2587 56.4564 10.7967 56.2162 9.50334 55.6757C6.74795 54.4745 4.77981 51.7718 4.38618 48.6486C4.21748 47.1471 4.32995 45.6456 4.89227 43.964C5.06097 43.3634 5.34213 42.7628 5.6233 42.042C6.01693 41.0811 6.46679 40.0601 6.91665 39.039L6.97288 38.9189C10.8529 29.97 15.0141 20.8408 19.344 11.9519L19.5127 11.5916C19.9626 10.6907 20.4125 9.72973 20.8623 8.82883C21.3122 7.86787 21.8183 6.96697 22.4368 6.18618C23.6177 4.74474 25.1922 3.96396 26.9354 3.96396C28.6786 3.96396 30.2532 4.74474 31.434 6.18618C32.0526 6.96697 32.5587 7.86787 33.0086 8.82883C33.4584 9.72973 33.9083 10.6907 34.3581 11.5916L34.5268 11.9519C38.8005 20.9009 42.9617 30.03 46.8418 38.979V39.039C47.2916 40 47.6852 41.0811 48.1351 42.042C48.4163 42.7628 48.6974 43.3634 48.8661 43.964C49.316 45.5255 49.4847 47.027 49.2598 48.5886Z" fill="#9D9CA0"/>
</g>
<defs>
<clipPath id="clip0_1_4476">
<rect width="180" height="60" fill="white" transform="translate(0.730042)"/>
</clipPath>
</defs>
</svg>
