<svg width="180" height="60" viewBox="0 0 180 60" fill="none" xmlns="http://www.w3.org/2000/svg">
<g clip-path="url(#clip0_1_4460)">
<path fill-rule="evenodd" clip-rule="evenodd" d="M111.672 46.9211C101.214 55.4413 86.0584 60.0001 72.9903 60.0001C54.6843 60.0001 38.2143 52.515 25.7402 40.0531C24.7682 39.0777 25.6322 37.7439 26.8202 38.5004C40.2663 47.16 56.9163 52.3557 74.0883 52.3557C85.6804 52.3557 98.4244 49.7081 110.142 44.1938C111.924 43.3776 113.4 45.4878 111.672 46.9211Z" fill="#9D9CA0"/>
<path fill-rule="evenodd" clip-rule="evenodd" d="M116.01 41.4068C114.678 39.5156 107.172 40.511 103.806 40.9489C102.78 41.0883 102.618 40.0929 103.554 39.3962C109.53 34.7379 119.34 36.0916 120.492 37.6444C121.644 39.217 120.186 50.0863 114.57 55.282C113.706 56.0783 112.878 55.6603 113.274 54.6052C114.534 51.1215 117.36 43.3179 116.01 41.4068Z" fill="#9D9CA0"/>
<path fill-rule="evenodd" clip-rule="evenodd" d="M104.039 6.54961V2.0307C104.039 1.35386 104.507 0.895996 105.065 0.895996H123.371C123.965 0.895996 124.433 1.37377 124.433 2.0307V5.91259C124.433 6.56952 123.929 7.40562 123.047 8.7593L113.579 23.7294C117.107 23.6299 120.833 24.2072 124.019 26.1979C124.739 26.6558 124.937 27.3127 124.991 27.9497V32.7673C124.991 33.4242 124.325 34.2006 123.641 33.8024C118.007 30.5377 110.519 30.1793 104.291 33.8423C103.661 34.2205 102.995 33.464 102.995 32.8071V28.2284C102.995 27.4919 102.995 26.2377 103.661 25.1229L114.659 7.68432H105.101C104.507 7.68432 104.039 7.22645 104.039 6.54961Z" fill="#9D9CA0"/>
<path fill-rule="evenodd" clip-rule="evenodd" d="M37.2405 34.7778H31.6785C31.1385 34.738 30.7245 34.3 30.6885 33.7227V2.11024C30.6885 1.47322 31.1745 0.975538 31.7685 0.975538H36.9705C37.5105 0.995445 37.9425 1.45331 37.9785 2.03061V6.17129H38.0865C39.4365 2.16996 41.9925 0.318604 45.4125 0.318604C48.9045 0.318604 51.0825 2.18987 52.6485 6.17129C53.9985 2.16996 57.0586 0.318604 60.3346 0.318604C62.6746 0.318604 65.2306 1.39359 66.7786 3.78244C68.5426 6.44999 68.1826 10.312 68.1826 13.6962V33.6431C68.1826 34.2801 67.6966 34.7778 67.1026 34.7778H61.5406C60.9826 34.738 60.5326 34.2403 60.5326 33.6431V16.8813C60.5326 15.5475 60.6406 12.2231 60.3706 10.949C59.9566 8.81894 58.7146 8.22172 57.0946 8.22172C55.7445 8.22172 54.3405 9.21708 53.7645 10.8096C53.1885 12.4022 53.2425 15.0698 53.2425 16.8614V33.6232C53.2425 34.2602 52.7565 34.7579 52.1625 34.7579H46.6185C46.0605 34.7181 45.6105 34.2204 45.6105 33.6232V16.8614C45.6105 13.3378 46.1325 8.14209 42.1725 8.14209C38.1765 8.14209 38.3205 13.1985 38.3205 16.8614V33.6232C38.3205 34.2602 37.8345 34.7778 37.2405 34.7778Z" fill="#9D9CA0"/>
<path fill-rule="evenodd" clip-rule="evenodd" d="M140.221 0.298828C148.484 0.298828 152.966 8.14222 152.966 18.1356C152.966 27.7706 148.016 35.4349 140.221 35.4349C132.103 35.4349 127.693 27.5915 127.693 17.7972C127.675 7.96306 132.157 0.298828 140.221 0.298828ZM140.257 6.76863C136.153 6.76863 135.901 12.9398 135.901 16.8018C135.901 20.6638 135.847 28.9252 140.221 28.9252C144.542 28.9252 144.74 22.2763 144.74 18.2152C144.74 15.5477 144.632 12.3625 143.912 9.83433C143.282 7.62464 142.04 6.76863 140.257 6.76863Z" fill="#9D9CA0"/>
<path fill-rule="evenodd" clip-rule="evenodd" d="M163.674 34.7779H158.13C157.572 34.7381 157.122 34.2404 157.122 33.6432V2.01084C157.176 1.43353 157.626 0.97567 158.202 0.97567H163.368C163.854 0.995577 164.25 1.37381 164.358 1.85158V6.68901H164.466C166.032 2.36917 168.21 0.298828 172.062 0.298828C174.564 0.298828 176.994 1.29418 178.56 4.02146C180.018 6.54966 180.018 10.8098 180.018 13.8556V33.7627C179.964 34.3201 179.496 34.758 178.938 34.758H173.358C172.854 34.7182 172.422 34.3002 172.368 33.7627V16.6027C172.368 13.1389 172.728 8.0825 168.876 8.0825C167.526 8.0825 166.266 9.07786 165.654 10.6107C164.862 12.5417 164.772 14.4727 164.772 16.6027V33.6233C164.754 34.2603 164.268 34.7779 163.674 34.7779Z" fill="#9D9CA0"/>
<path fill-rule="evenodd" clip-rule="evenodd" d="M89.4434 19.6682C89.4434 22.077 89.4974 24.0677 88.3994 26.1977C87.5174 27.9297 86.0954 29.0046 84.5474 29.0046C82.4054 29.0046 81.1634 27.1931 81.1634 24.5455C81.1634 19.29 85.4114 18.3344 89.4614 18.3344L89.4434 19.6682ZM95.0594 34.6782C94.6994 35.0365 94.1594 35.0763 93.7454 34.8175C91.8914 33.1254 91.5674 32.3291 90.5414 30.7167C87.4814 34.1606 85.3214 35.1958 81.3614 35.1958C76.6633 35.1958 73.0273 31.9907 73.0273 25.6005C73.0273 20.6038 75.4753 17.1997 78.9674 15.5275C81.9914 14.0544 86.2214 13.7956 89.4434 13.3776V12.5813C89.4434 11.1082 89.5514 9.37624 88.7594 8.1221C88.0934 6.98739 86.7794 6.50962 85.6274 6.50962C83.5034 6.50962 81.6134 7.72395 81.1454 10.2123C81.0554 10.7697 80.6774 11.3072 80.1734 11.347L74.7733 10.71C74.3233 10.5906 73.8013 10.1924 73.9453 9.41606C75.2053 2.18978 81.1274 0 86.4194 0C89.1374 0 92.6654 0.796284 94.8074 3.06569C97.5254 5.87259 97.2554 9.59522 97.2554 13.6563V23.2515C97.2554 26.138 98.3354 27.4121 99.3614 28.9648C99.7214 29.5222 99.7934 30.1792 99.3434 30.5972C98.2094 31.6722 96.1934 33.6231 95.0594 34.6782Z" fill="#9D9CA0"/>
<path fill-rule="evenodd" clip-rule="evenodd" d="M16.416 19.6682C16.416 22.077 16.47 24.0677 15.372 26.1977C14.49 27.9297 13.086 29.0046 11.52 29.0046C9.37802 29.0046 8.13602 27.1931 8.13602 24.5455C8.13602 19.29 12.384 18.3344 16.416 18.3344V19.6682ZM22.0321 34.6782C21.6721 35.0365 21.132 35.0763 20.718 34.8175C18.864 33.1254 18.54 32.3291 17.514 30.7167C14.454 34.1606 12.294 35.1958 8.33402 35.1958C3.65401 35.1958 0 31.9907 0 25.6005C0 20.6038 2.44801 17.1997 5.94001 15.5275C8.96402 14.0544 13.194 13.7956 16.416 13.3776V12.5813C16.416 11.1082 16.524 9.37624 15.75 8.1221C15.066 6.98739 13.77 6.50962 12.618 6.50962C10.494 6.50962 8.60402 7.72395 8.13602 10.2123C8.04602 10.7697 7.66802 11.3072 7.16402 11.347L1.764 10.71C1.314 10.5906 0.810002 10.1924 0.936002 9.41606C2.178 2.18978 8.10002 0 13.392 0C16.11 0 19.638 0.796284 21.7801 3.06569C24.4981 5.87259 24.2281 9.59522 24.2281 13.6563V23.2515C24.2281 26.138 25.3081 27.4121 26.3341 28.9648C26.6941 29.5222 26.7661 30.1792 26.3161 30.5972C25.1821 31.6722 23.1661 33.6231 22.0321 34.6782Z" fill="#9D9CA0"/>
</g>
<defs>
<clipPath id="clip0_1_4460">
<rect width="180" height="60" fill="white"/>
</clipPath>
</defs>
</svg>
