<svg width="222" height="222" viewBox="0 0 222 222" fill="none" xmlns="http://www.w3.org/2000/svg">
<g filter="url(#filter0_d_1_4424)">
<circle cx="111" cy="101" r="50" fill="white"/>
</g>
<path d="M110.508 105.908H110.626C113.138 105.967 115.148 107.76 115.148 109.965C115.148 111.846 113.691 113.418 111.714 113.888V115.534C111.714 116.122 111.178 116.592 110.508 116.592C109.838 116.592 109.302 116.122 109.302 115.534V113.888C108.318 113.656 107.448 113.146 106.828 112.437C106.207 111.728 105.87 110.859 105.868 109.965C105.868 109.377 106.404 108.906 107.074 108.906C107.744 108.906 108.28 109.377 108.28 109.965C108.28 111.052 109.269 111.919 110.492 111.919C111.714 111.919 112.719 111.037 112.719 109.965C112.719 108.892 111.714 108.01 110.492 108.01H110.374C109.169 107.981 108.024 107.542 107.183 106.784C106.342 106.027 105.87 105.011 105.868 103.954C105.868 102.073 107.326 100.5 109.302 100.03V98.384C109.302 97.7962 109.838 97.3259 110.508 97.3259C111.178 97.3259 111.714 97.7962 111.714 98.384V100.03C113.691 100.5 115.148 102.073 115.148 103.954C115.148 104.542 114.612 105.012 113.942 105.012C113.272 105.012 112.736 104.542 112.736 103.954C112.736 102.881 111.731 101.999 110.508 101.999C109.286 101.999 108.28 102.881 108.28 103.954C108.28 105.027 109.286 105.908 110.508 105.908Z" fill="#6E5DCF"/>
<path d="M101.617 84.974L106.284 89.7649L105.78 90.2587C96.1745 92.1486 89 99.6744 89 108.671C89 116.581 96.3169 123 105.332 123H115.668C124.683 123 132 116.582 132 108.673C132.017 99.6744 124.842 92.1486 115.237 90.2587C115.276 89.9481 115.212 89.6343 115.053 89.3549L119.023 85.3678L119.279 85.021C119.578 84.4484 119.655 83.8053 119.497 83.1907C119.339 82.5762 118.955 82.0242 118.405 81.6196C117.855 81.215 117.168 80.9802 116.451 80.9514C115.733 80.9226 115.025 81.1014 114.435 81.4602L113.023 79.9906C112.706 79.6796 112.318 79.4306 111.884 79.2599C111.45 79.0893 110.981 79.0007 110.505 79C110.03 78.9993 109.56 79.0865 109.125 79.2559C108.691 79.4253 108.302 79.6731 107.984 79.9832L106.505 81.4322C105.916 81.066 105.206 80.8801 104.485 80.9034C103.764 80.9267 103.071 81.1578 102.515 81.561C101.959 81.9642 101.569 82.517 101.407 83.134C101.244 83.7509 101.318 84.3976 101.617 84.974ZM107.981 87.0094L105.14 84.129C105.8 84.408 106.546 84.4872 107.263 84.3543C107.98 84.2213 108.626 83.8837 109.101 83.3942L110.441 81.8687L111.929 83.4147C112.393 83.8879 113.018 84.217 113.713 84.3528C114.407 84.4887 115.133 84.4241 115.782 84.1686L112.954 87.0094H107.981ZM92.3502 108.671C92.3502 99.8714 100.478 92.7408 110.508 92.7408C120.539 92.7408 128.667 99.8714 128.65 108.668V108.671C128.648 111.692 127.28 114.588 124.846 116.724C122.412 118.859 119.11 120.06 115.668 120.061H105.332C101.89 120.06 98.5884 118.859 96.154 116.724C93.7197 114.588 92.3515 111.692 92.3502 108.671Z" fill="#6E5DCF"/>
<defs>
<filter id="filter0_d_1_4424" x="0" y="0" width="222" height="222" filterUnits="userSpaceOnUse" color-interpolation-filters="sRGB">
<feFlood flood-opacity="0" result="BackgroundImageFix"/>
<feColorMatrix in="SourceAlpha" type="matrix" values="0 0 0 0 0 0 0 0 0 0 0 0 0 0 0 0 0 0 127 0" result="hardAlpha"/>
<feMorphology radius="1" operator="dilate" in="SourceAlpha" result="effect1_dropShadow_1_4424"/>
<feOffset dy="10"/>
<feGaussianBlur stdDeviation="30"/>
<feComposite in2="hardAlpha" operator="out"/>
<feColorMatrix type="matrix" values="0 0 0 0 0.563108 0 0 0 0 0.519529 0 0 0 0 0.811765 0 0 0 0.2 0"/>
<feBlend mode="normal" in2="BackgroundImageFix" result="effect1_dropShadow_1_4424"/>
<feBlend mode="normal" in="SourceGraphic" in2="effect1_dropShadow_1_4424" result="shape"/>
</filter>
</defs>
</svg>
