<svg width="16" height="17" viewBox="0 0 16 17" fill="none" xmlns="http://www.w3.org/2000/svg">
<path d="M14.9 0.0229492H1.1C0.808262 0.0229492 0.528473 0.115663 0.322183 0.280695C0.115893 0.445727 0 0.669559 0 0.902949V15.1429C0 15.3763 0.115893 15.6002 0.322183 15.7652C0.528473 15.9302 0.808262 16.0229 1.1 16.0229H6.68V9.82295H4.08V7.42295H6.68V5.62295C6.62614 5.20035 6.68851 4.77345 6.86272 4.37218C7.03693 3.97091 7.31877 3.60499 7.68847 3.30008C8.05817 2.99517 8.50677 2.75866 9.00283 2.60714C9.49888 2.45562 10.0304 2.39275 10.56 2.42295C11.3383 2.41912 12.1163 2.45117 12.89 2.51895V4.67895H11.3C10.04 4.67895 9.8 5.15895 9.8 5.85495V7.39895H12.8L12.41 9.79895H9.8V16.0229H14.9C15.0445 16.0229 15.1875 16.0002 15.321 15.956C15.4544 15.9117 15.5757 15.8469 15.6778 15.7652C15.78 15.6835 15.861 15.5865 15.9163 15.4797C15.9715 15.3729 16 15.2585 16 15.1429V0.902949C16 0.787386 15.9715 0.672954 15.9163 0.566188C15.861 0.459421 15.78 0.362411 15.6778 0.280695C15.5757 0.19898 15.4544 0.134159 15.321 0.0899353C15.1875 0.0457112 15.0445 0.0229492 14.9 0.0229492Z" fill="white"/>
</svg>
