<svg width="60" height="61" viewBox="0 0 60 61" fill="none" xmlns="http://www.w3.org/2000/svg">
<path d="M35.6757 5.74208C35.6757 8.87667 33.1346 11.4178 30 11.4178C26.8654 11.4178 24.3243 8.87667 24.3243 5.74208C24.3243 2.60749 26.8654 0.0664062 30 0.0664062C33.1346 0.0664062 35.6757 2.60749 35.6757 5.74208Z" fill="white"/>
<path d="M35.6757 30.0664C35.6757 33.201 33.1346 35.7421 30 35.7421C26.8654 35.7421 24.3243 33.201 24.3243 30.0664C24.3243 26.9318 26.8654 24.3907 30 24.3907C33.1346 24.3907 35.6757 26.9318 35.6757 30.0664Z" fill="white"/>
<path d="M35.6757 54.3907C35.6757 57.5253 33.1346 60.0664 30 60.0664C26.8654 60.0664 24.3243 57.5253 24.3243 54.3907C24.3243 51.2561 26.8654 48.7151 30 48.7151C33.1346 48.7151 35.6757 51.2561 35.6757 54.3907Z" fill="white"/>
<path d="M54.3243 35.7421C51.1897 35.7421 48.6486 33.201 48.6486 30.0664C48.6486 26.9318 51.1897 24.3907 54.3243 24.3907C57.4589 24.3907 60 26.9318 60 30.0664C60 33.201 57.4589 35.7421 54.3243 35.7421Z" fill="white"/>
<path d="M5.67568 35.7421C2.54109 35.7421 -1.37017e-07 33.201 0 30.0664C1.37017e-07 26.9318 2.54109 24.3907 5.67568 24.3907C8.81027 24.3907 11.3514 26.9318 11.3514 30.0664C11.3514 33.201 8.81026 35.7421 5.67568 35.7421Z" fill="white"/>
<path d="M43.1867 51.2796C40.9702 49.0631 40.9702 45.4695 43.1867 43.253C45.4032 41.0365 48.9968 41.0365 51.2133 43.253C53.4298 45.4695 53.4298 49.0631 51.2133 51.2796C48.9968 53.4961 45.4032 53.4961 43.1867 51.2796Z" fill="white"/>
<path d="M8.78679 16.8798C6.5703 14.6633 6.5703 11.0697 8.78679 8.8532C11.0033 6.63671 14.5969 6.63671 16.8134 8.8532C19.0299 11.0697 19.0299 14.6633 16.8134 16.8798C14.5969 19.0963 11.0033 19.0963 8.78679 16.8798Z" fill="white"/>
<path d="M51.2132 16.8797C48.9967 19.0962 45.403 19.0962 43.1865 16.8797C40.97 14.6633 40.97 11.0696 43.1865 8.85313C45.403 6.63664 48.9967 6.63664 51.2132 8.85313C53.4296 11.0696 53.4296 14.6633 51.2132 16.8797Z" fill="white"/>
<path d="M16.8135 51.2796C14.597 53.4961 11.0033 53.4961 8.78685 51.2796C6.57036 49.0631 6.57036 45.4695 8.78685 43.253C11.0033 41.0365 14.597 41.0365 16.8135 43.253C19.03 45.4695 19.03 49.0631 16.8135 51.2796Z" fill="white"/>
</svg>
