<svg width="184" height="60" viewBox="0 0 184 60" fill="none" xmlns="http://www.w3.org/2000/svg">
<path d="M45.2937 21.1872H23.8312V27.5209H39.0556C38.2995 36.3997 30.8691 40.1884 23.8603 40.1884C19.3482 40.1884 15.0209 38.4059 11.8304 35.233C8.63982 32.0601 6.84739 27.7567 6.84739 23.2695C6.84739 18.7824 8.63982 14.479 11.8304 11.3061C15.0209 8.13323 19.3482 6.35072 23.8603 6.35072C28.1371 6.34411 32.2498 7.98733 35.3331 10.9347L39.7972 6.33626C35.4854 2.19058 29.6972 -0.0869066 23.7004 0.00253843C20.6279 0.0243767 17.5899 0.647821 14.7597 1.83727C11.9295 3.02673 9.36262 4.7589 7.20559 6.93488C5.04856 9.11086 3.34362 11.688 2.18813 14.5193C1.03264 17.3505 0.449219 20.3804 0.471179 23.4358C0.493138 26.4913 1.12005 29.5126 2.31612 32.3271C3.51219 35.1416 5.25399 37.6943 7.44207 39.8394C9.63016 41.9845 12.2217 43.68 15.0687 44.8291C17.9157 45.9782 20.9624 46.5584 24.0348 46.5366C36.5546 46.5366 45.7299 38.0048 45.7299 25.3808C45.7559 23.9728 45.6242 22.5663 45.3373 21.1872H45.2937ZM62.8737 16.6032C59.905 16.6147 57.0061 17.4999 54.5425 19.1472C52.0789 20.7946 50.1608 23.1304 49.03 25.8601C47.8993 28.5899 47.6064 31.5915 48.1884 34.4866C48.7704 37.3816 50.2012 40.0405 52.3004 42.1281C54.3996 44.2157 57.0733 45.6386 59.9845 46.2174C62.8956 46.7962 65.9139 46.5049 68.6589 45.3804C71.4038 44.2559 73.7526 42.3484 75.4091 39.8984C77.0656 37.4484 77.9557 34.5656 77.9673 31.6133C77.9987 29.6335 77.6297 27.6676 76.8823 25.8324C76.1349 23.9972 75.0243 22.3301 73.6165 20.93C72.2086 19.5299 70.5322 18.4254 68.6867 17.6822C66.8413 16.9389 64.8645 16.572 62.8737 16.6032ZM62.961 22.4742C64.7909 22.367 66.611 22.8091 68.1851 23.7431C69.7593 24.6771 71.015 26.0599 71.7893 27.7122C72.5635 29.3646 72.8207 31.2101 72.5274 33.0096C72.234 34.809 71.4038 36.4793 70.1443 37.8038C68.8848 39.1283 67.2541 40.0458 65.4639 40.4375C63.6736 40.8291 61.8063 40.6767 60.1042 40.0001C58.402 39.3235 56.9436 38.1539 55.9181 36.6429C54.8925 35.132 54.3472 33.3494 54.3527 31.5265C54.2917 30.3631 54.4689 29.1995 54.8735 28.1062C55.2781 27.013 55.9018 26.0128 56.7067 25.1664C57.5116 24.3199 58.481 23.6449 59.5561 23.1821C60.6311 22.7193 61.7895 22.4785 62.961 22.4742ZM95.7654 16.6032C92.796 16.6118 89.8957 17.4946 87.4302 19.1402C84.9647 20.7859 83.0443 23.1206 81.9113 25.8502C80.7783 28.5797 80.4834 31.5818 81.0638 34.4778C81.6441 37.3738 83.0738 40.034 85.1724 42.1231C87.2711 44.2121 89.9447 45.6364 92.8563 46.2164C95.7678 46.7963 98.7868 46.5059 101.533 45.3818C104.278 44.2577 106.628 42.3503 108.285 39.8999C109.942 37.4496 110.833 34.5662 110.844 31.6133C110.876 29.6347 110.507 27.6701 109.761 25.8358C109.014 24.0016 107.905 22.3351 106.499 20.9352C105.092 19.5353 103.418 18.4306 101.574 17.6864C99.7302 16.9423 97.755 16.574 95.7654 16.6032ZM95.8526 22.4742C97.6825 22.367 99.5026 22.8091 101.077 23.7431C102.651 24.6771 103.907 26.0599 104.681 27.7122C105.455 29.3646 105.712 31.2101 105.419 33.0096C105.126 34.809 104.295 36.4793 103.036 37.8038C101.776 39.1283 100.146 40.0458 98.3555 40.4375C96.5653 40.8291 94.698 40.6767 92.9958 40.0001C91.2937 39.3235 89.8353 38.1539 88.8097 36.6429C87.7842 35.132 87.2388 33.3494 87.2444 31.5265C87.1833 30.3631 87.3605 29.1995 87.7652 28.1062C88.1698 27.013 88.7935 26.0128 89.5984 25.1664C90.4033 24.3199 91.3727 23.6449 92.4477 23.1821C93.5228 22.7193 94.6812 22.4785 95.8526 22.4742ZM128.003 16.6177C119.918 16.6177 113.564 23.66 113.564 31.5554C113.504 35.4137 114.967 39.1416 117.639 41.9395C120.311 44.7374 123.98 46.3826 127.857 46.5221C129.422 46.6069 130.985 46.3222 132.418 45.6914C133.851 45.0606 135.113 44.1015 136.102 42.8925V45.7846C136.102 50.947 132.947 54.0271 128.192 54.0271C126.533 54.0135 124.917 53.508 123.549 52.5755C122.182 51.6429 121.125 50.3257 120.514 48.7924L114.698 51.1929C115.823 53.8267 117.708 56.0693 120.115 57.637C122.523 59.2046 125.343 60.0268 128.221 59.9993C136.262 59.9993 142.384 54.9671 142.384 44.4109V17.5143H136.117V20.0448C135.089 18.9304 133.833 18.0478 132.433 17.4567C131.034 16.8655 129.523 16.5794 128.003 16.6177ZM128.584 22.4742C132.554 22.4742 136.611 25.8435 136.611 31.5844C136.611 37.3252 132.554 40.6511 128.497 40.6511C127.35 40.6221 126.22 40.3637 125.176 39.8913C124.131 39.419 123.192 38.7423 122.416 37.9016C121.64 37.0609 121.042 36.0735 120.658 34.9981C120.274 33.9227 120.111 32.7814 120.18 31.6422C120.18 25.858 124.338 22.4742 128.584 22.4742ZM170.462 16.5743C162.843 16.5743 156.43 22.6044 156.43 31.5121C156.355 33.4752 156.683 35.433 157.393 37.2659C158.104 39.0989 159.183 40.7687 160.564 42.1733C161.945 43.5779 163.6 44.6879 165.427 45.4356C167.253 46.1833 169.214 46.553 171.189 46.5221C173.667 46.527 176.108 45.9317 178.302 44.7879C180.496 43.644 182.377 41.9859 183.782 39.957L178.576 36.5154C177.822 37.788 176.743 38.8396 175.448 39.5634C174.153 40.2872 172.689 40.6575 171.204 40.6367C169.661 40.7 168.135 40.3029 166.821 39.4963C165.507 38.6896 164.466 37.5105 163.832 36.1105L184 27.7957L182.953 25.3519C181.992 22.8132 180.285 20.6203 178.056 19.0578C175.826 17.4952 173.175 16.635 170.448 16.5888L170.462 16.5743ZM170.724 22.3585C171.862 22.3098 172.99 22.5845 173.976 23.1505C174.963 23.7165 175.766 24.5503 176.293 25.5543L162.828 31.1505C162.762 30.0566 162.913 28.9604 163.275 27.9251C163.636 26.8898 164.2 25.936 164.934 25.1186C165.668 24.3012 166.558 23.6365 167.552 23.1628C168.545 22.689 169.624 22.4157 170.724 22.3585ZM146.819 45.64H153.449V1.54982H146.819V45.64Z" fill="#9D9CA0"/>
</svg>
