<svg width="16" height="17" viewBox="0 0 16 17" fill="none" xmlns="http://www.w3.org/2000/svg">
<path d="M8.82241 0.0239335C9.40617 0.0216934 9.98993 0.0275605 10.5735 0.041533L10.7287 0.0471327C10.9079 0.0535325 11.0847 0.0615322 11.2983 0.0711319C12.1494 0.111131 12.7302 0.245526 13.2398 0.443119C13.7678 0.646312 14.2125 0.921503 14.6573 1.36629C15.064 1.76596 15.3787 2.24942 15.5797 2.78304C15.7773 3.29262 15.9116 3.8742 15.9516 4.72537C15.9612 4.93817 15.9692 5.11576 15.9756 5.29495L15.9804 5.45015C15.9947 6.03348 16.0008 6.61699 15.9988 7.20049L15.9996 7.79727V8.84523C16.0016 9.429 15.9955 10.0128 15.9812 10.5964L15.9764 10.7516C15.97 10.9308 15.962 11.1076 15.9524 11.3211C15.9124 12.1723 15.7765 12.7531 15.5797 13.2627C15.3794 13.7969 15.0646 14.2807 14.6573 14.6802C14.2573 15.0869 13.7736 15.4016 13.2398 15.6026C12.7302 15.8002 12.1494 15.9346 11.2983 15.9746C11.0847 15.9842 10.9079 15.9922 10.7287 15.9986L10.5735 16.0034C9.98993 16.0176 9.40617 16.0237 8.82241 16.0218L8.22564 16.0226H7.17849C6.59473 16.0246 6.01097 16.0184 5.42738 16.0042L5.27219 15.9994C5.08229 15.9925 4.89243 15.9845 4.70262 15.9754C3.85146 15.9354 3.27069 15.7994 2.76032 15.6026C2.22649 15.4021 1.74296 15.0873 1.34359 14.6802C0.93645 14.2805 0.621409 13.7967 0.42044 13.2627C0.22285 12.7531 0.088457 12.1723 0.0484591 11.3211C0.0395499 11.1313 0.0315502 10.9415 0.0244603 10.7516L0.0204606 10.5964C0.00571225 10.0128 -0.000954789 9.42901 0.000461577 8.84523V7.20049C-0.00177108 6.61699 0.00409591 6.03349 0.0180607 5.45015L0.0236604 5.29495C0.0300601 5.11576 0.0380597 4.93817 0.0476592 4.72537C0.0876571 3.8734 0.22205 3.29342 0.41964 2.78304C0.620728 2.24915 0.936385 1.76583 1.34439 1.36709C1.74349 0.959703 2.22672 0.644371 2.76032 0.443119C3.27069 0.245526 3.85066 0.111131 4.70262 0.0711319L5.27219 0.0471327L5.42738 0.043133C6.0107 0.0283917 6.59419 0.0217246 7.17769 0.0231336L8.82241 0.0239335ZM8.00005 4.0238C7.47008 4.0163 6.94391 4.11421 6.45211 4.31184C5.96031 4.50947 5.5127 4.80287 5.13527 5.175C4.75785 5.54713 4.45815 5.99056 4.25359 6.47952C4.04903 6.96849 3.94369 7.49323 3.94369 8.02326C3.94369 8.55329 4.04903 9.07804 4.25359 9.567C4.45815 10.056 4.75785 10.4994 5.13527 10.8715C5.5127 11.2436 5.96031 11.5371 6.45211 11.7347C6.94391 11.9323 7.47008 12.0302 8.00005 12.0227C9.06086 12.0227 10.0782 11.6013 10.8283 10.8512C11.5784 10.1011 11.9998 9.08369 11.9998 8.02286C11.9998 6.96203 11.5784 5.94465 10.8283 5.19453C10.0782 4.44441 9.06086 4.0238 8.00005 4.0238ZM8.00005 5.62374C8.31884 5.61787 8.6356 5.67558 8.93184 5.7935C9.22808 5.91143 9.49784 6.0872 9.72538 6.31056C9.95293 6.53391 10.1337 6.80037 10.2571 7.09437C10.3805 7.38836 10.4441 7.70401 10.4441 8.02285C10.4442 8.3417 10.3807 8.65737 10.2574 8.9514C10.1341 9.24544 9.95342 9.51196 9.72596 9.73539C9.49849 9.95882 9.22878 10.1347 8.93258 10.2527C8.63639 10.3707 8.31964 10.4285 8.00085 10.4228C7.36436 10.4228 6.75395 10.1699 6.30388 9.71986C5.85382 9.26979 5.60097 8.65936 5.60097 8.02286C5.60097 7.38636 5.85382 6.77593 6.30388 6.32586C6.75395 5.87579 7.36436 5.62294 8.00085 5.62294L8.00005 5.62374ZM12.1998 2.82384C11.9418 2.83417 11.6977 2.94395 11.5188 3.1302C11.3398 3.31646 11.2399 3.56472 11.2399 3.823C11.2399 4.08129 11.3398 4.32955 11.5188 4.5158C11.6977 4.70205 11.9418 4.81184 12.1998 4.82217C12.465 4.82217 12.7194 4.71682 12.9069 4.52929C13.0944 4.34176 13.1998 4.08741 13.1998 3.8222C13.1998 3.557 13.0944 3.30265 12.9069 3.11512C12.7194 2.92759 12.465 2.82224 12.1998 2.82224V2.82384Z" fill="white"/>
</svg>
