<svg width="16" height="17" viewBox="0 0 16 17" fill="none" xmlns="http://www.w3.org/2000/svg">
<g clip-path="url(#clip0_1_5274)">
<path d="M0 1.16895C0 0.535949 0.526 0.0229492 1.175 0.0229492H14.825C15.474 0.0229492 16 0.535949 16 1.16895V14.8769C16 15.5099 15.474 16.0229 14.825 16.0229H1.175C0.526 16.0229 0 15.5099 0 14.8769V1.16895ZM4.943 13.4169V6.19195H2.542V13.4169H4.943ZM3.743 5.20495C4.58 5.20495 5.101 4.65095 5.101 3.95695C5.086 3.24795 4.581 2.70895 3.759 2.70895C2.937 2.70895 2.4 3.24895 2.4 3.95695C2.4 4.65095 2.921 5.20495 3.727 5.20495H3.743ZM8.651 13.4169V9.38195C8.651 9.16595 8.667 8.94995 8.731 8.79595C8.904 8.36495 9.299 7.91795 9.963 7.91795C10.832 7.91795 11.179 8.57995 11.179 9.55195V13.4169H13.58V9.27295C13.58 7.05295 12.396 6.02095 10.816 6.02095C9.542 6.02095 8.971 6.72095 8.651 7.21395V7.23895H8.635C8.64031 7.2306 8.64564 7.22227 8.651 7.21395V6.19195H6.251C6.281 6.86995 6.251 13.4169 6.251 13.4169H8.651Z" fill="white"/>
</g>
<defs>
<clipPath id="clip0_1_5274">
<rect width="16" height="16" fill="white" transform="translate(0 0.0229492)"/>
</clipPath>
</defs>
</svg>
