<svg width="282" height="60" viewBox="0 0 282 60" fill="none" xmlns="http://www.w3.org/2000/svg">
<g clip-path="url(#clip0_1_4470)">
<path d="M100.016 34.5582L98.3401 39.3024H98.2004C97.921 38.2326 97.4088 36.6047 96.5706 34.6512L87.5837 12.0931H78.783V48.0465H84.6036V25.8605C84.6036 24.4652 84.6036 22.8838 84.557 20.9303C84.5104 19.9535 84.4173 19.2093 84.3708 18.6512H84.5104C84.7898 20.0465 85.1158 21.0698 85.3486 21.721L96.1516 47.9535H100.249L110.959 21.4884C111.192 20.8838 111.425 19.6745 111.658 18.6512H111.797C111.658 21.3024 111.564 23.6745 111.518 25.1163V47.907H117.711V12H109.236L100.016 34.5582ZM123.578 22.1396H129.631V47.907H123.578V22.1396ZM126.651 11.2559C125.627 11.2559 124.789 11.6279 124.09 12.2791C123.392 12.9303 123.019 13.7675 123.019 14.7907C123.019 15.7675 123.392 16.6047 124.09 17.2558C124.789 17.907 125.627 18.2326 126.651 18.2326C127.676 18.2326 128.56 17.8605 129.212 17.2558C129.911 16.6047 130.283 15.7675 130.283 14.7907C130.283 13.814 129.911 12.9768 129.212 12.2791C128.607 11.6279 127.722 11.2559 126.651 11.2559ZM151.098 21.907C149.98 21.6745 148.816 21.5349 147.698 21.5349C144.951 21.5349 142.437 22.1396 140.341 23.3489C138.246 24.5582 136.57 26.2326 135.499 28.3256C134.381 30.4651 133.822 32.9303 133.822 35.7675C133.822 38.2326 134.381 40.4186 135.452 42.4186C136.523 44.3721 138.013 45.9535 140.015 47.0233C141.924 48.093 144.16 48.6512 146.674 48.6512C149.561 48.6512 152.029 48.0465 153.985 46.9303L154.031 46.8838V41.3024L153.798 41.4884C152.914 42.1396 151.889 42.6977 150.865 43.0233C149.794 43.3954 148.816 43.5814 147.978 43.5814C145.556 43.5814 143.647 42.8838 142.297 41.3489C140.9 39.8605 140.202 37.814 140.202 35.2558C140.202 32.6047 140.9 30.5117 142.344 28.9768C143.787 27.4419 145.696 26.6512 148.024 26.6512C149.98 26.6512 151.982 27.3024 153.798 28.6047L154.031 28.7907V22.8838L153.985 22.8372C153.193 22.5117 152.308 22.1396 151.098 21.907ZM171.074 21.721C169.584 21.721 168.187 22.1861 166.976 23.1628C165.952 24 165.253 25.2093 164.648 26.6512H164.601V22.1396H158.548V47.907H164.601V34.7442C164.601 32.5117 165.067 30.6512 166.091 29.3024C167.116 27.907 168.42 27.2093 170.003 27.2093C170.562 27.2093 171.12 27.3489 171.819 27.4419C172.471 27.6279 172.936 27.814 173.262 28.0465L173.495 28.2326V22.1861L173.355 22.1396C172.936 21.8605 172.098 21.721 171.074 21.721ZM187.558 21.5814C183.32 21.5814 179.921 22.8372 177.546 25.3024C175.125 27.7675 173.961 31.1628 173.961 35.4419C173.961 39.4419 175.171 42.6977 177.5 45.0698C179.828 47.3954 182.994 48.6047 186.952 48.6047C191.097 48.6047 194.403 47.3489 196.777 44.8372C199.199 42.3256 200.363 38.9768 200.363 34.8372C200.363 30.7442 199.245 27.4884 196.964 25.1163C194.775 22.7442 191.562 21.5814 187.558 21.5814ZM192.4 41.3954C191.283 42.8372 189.513 43.5349 187.325 43.5349C185.136 43.5349 183.367 42.8372 182.11 41.3024C180.852 39.8605 180.247 37.7675 180.247 35.1163C180.247 32.3721 180.899 30.2791 182.11 28.7907C183.367 27.3024 185.09 26.5582 187.278 26.5582C189.42 26.5582 191.097 27.2558 192.307 28.6977C193.518 30.1396 194.17 32.2326 194.17 34.9768C194.077 37.7675 193.564 39.9535 192.4 41.3954ZM213.867 32.8372C211.957 32.0465 210.747 31.4419 210.188 30.9303C209.722 30.4651 209.489 29.814 209.489 28.9768C209.489 28.2791 209.769 27.5814 210.467 27.1163C211.166 26.6512 211.957 26.4186 213.122 26.4186C214.146 26.4186 215.217 26.6047 216.241 26.8838C217.266 27.1628 218.197 27.5814 218.942 28.1396L219.175 28.3256V22.6512L219.035 22.6047C218.337 22.3256 217.405 22.0465 216.288 21.814C215.17 21.6279 214.146 21.5349 213.308 21.5349C210.421 21.5349 208.046 22.2326 206.183 23.7675C204.321 25.2093 203.436 27.1628 203.436 29.4419C203.436 30.6512 203.622 31.721 204.041 32.6047C204.461 33.4884 205.066 34.3256 205.904 35.0233C206.742 35.6745 207.953 36.4186 209.629 37.1163C211.026 37.721 212.097 38.1861 212.749 38.5582C213.401 38.9303 213.82 39.3489 214.146 39.6744C214.379 40.0465 214.518 40.5117 214.518 41.1163C214.518 42.8372 213.215 43.6744 210.56 43.6744C209.536 43.6744 208.465 43.4884 207.208 43.0698C205.951 42.6512 204.786 42.0465 203.809 41.3489L203.576 41.1628V47.0698L203.715 47.1163C204.6 47.5349 205.671 47.814 206.975 48.1396C208.279 48.3721 209.443 48.5582 210.467 48.5582C213.587 48.5582 216.148 47.8605 217.964 46.3256C219.827 44.8372 220.805 42.9303 220.805 40.4651C220.805 38.7442 220.339 37.2093 219.315 36.0465C217.964 34.9303 216.288 33.7675 213.867 32.8372ZM236.776 21.5814C232.539 21.5814 229.14 22.8372 226.765 25.3024C224.39 27.7675 223.179 31.1628 223.179 35.4419C223.179 39.4419 224.39 42.6977 226.718 45.0698C229.047 47.3954 232.213 48.6047 236.171 48.6047C240.315 48.6047 243.621 47.3489 245.996 44.8372C248.417 42.3256 249.581 38.9768 249.581 34.8372C249.581 30.7442 248.464 27.4884 246.182 25.1163C243.994 22.7442 240.781 21.5814 236.776 21.5814ZM241.572 41.3954C240.455 42.8372 238.685 43.5349 236.497 43.5349C234.262 43.5349 232.539 42.8372 231.282 41.3024C230.024 39.8605 229.419 37.7675 229.419 35.1163C229.419 32.3721 230.071 30.2791 231.282 28.7907C232.539 27.3024 234.262 26.5582 236.45 26.5582C238.546 26.5582 240.269 27.2558 241.479 28.6977C242.69 30.1396 243.342 32.2326 243.342 34.9768C243.342 37.7675 242.737 39.9535 241.572 41.3954ZM281.944 27.1163V22.1396H275.844V14.5117L275.658 14.5582L269.884 16.2791L269.744 16.3256V22.1396H260.617V18.8838C260.617 17.3954 260.99 16.2326 261.642 15.4884C262.294 14.7442 263.271 14.3721 264.482 14.3721C265.32 14.3721 266.205 14.5582 267.183 14.9768L267.416 15.1163V9.8605L267.276 9.81399C266.438 9.53492 265.32 9.34888 263.877 9.34888C262.061 9.34888 260.478 9.76748 259.034 10.4652C257.591 11.2559 256.52 12.3256 255.728 13.7675C254.936 15.1628 254.517 16.7442 254.517 18.5582V22.1396H250.28V27.0698H254.517V47.907H260.617V27.1163H269.744V40.3721C269.744 45.814 272.305 48.5582 277.427 48.5582C278.265 48.5582 279.15 48.4186 279.988 48.2791C280.873 48.0931 281.525 47.8605 281.897 47.6744L281.944 47.6279V42.6512L281.711 42.8372C281.338 43.0698 281.012 43.2558 280.454 43.3954C279.988 43.5349 279.569 43.5814 279.243 43.5814C278.032 43.5814 277.194 43.3024 276.589 42.6047C276.03 41.9535 275.751 40.8838 275.751 39.3024V27.1163H281.944Z" fill="#9D9CA0"/>
<path d="M0.740051 0H29.2841V28.5116H0.740051V0Z" fill="#9D9CA0"/>
<path d="M32.2645 0H60.8085V28.5116H32.2645V0Z" fill="#9D9CA0"/>
<path d="M0.740051 31.4883H29.2841V59.9999H0.740051V31.4883Z" fill="#9D9CA0"/>
<path d="M32.2645 31.4883H60.8085V59.9999H32.2645V31.4883Z" fill="#9D9CA0"/>
</g>
<defs>
<clipPath id="clip0_1_4470">
<rect width="281.249" height="60" fill="white" transform="translate(0.74054)"/>
</clipPath>
</defs>
</svg>
