<svg width="40" height="40" viewBox="0 0 40 40" fill="none" xmlns="http://www.w3.org/2000/svg">
<path d="M23.7838 3.78378C23.7838 5.87351 22.0897 7.56757 20 7.56757C17.9103 7.56757 16.2162 5.87351 16.2162 3.78378C16.2162 1.69406 17.9103 0 20 0C22.0897 0 23.7838 1.69406 23.7838 3.78378Z" fill="#6E5DCF"/>
<path d="M23.7838 20C23.7838 22.0897 22.0897 23.7838 20 23.7838C17.9103 23.7838 16.2162 22.0897 16.2162 20C16.2162 17.9103 17.9103 16.2162 20 16.2162C22.0897 16.2162 23.7838 17.9103 23.7838 20Z" fill="#6E5DCF"/>
<path d="M23.7838 36.2162C23.7838 38.3059 22.0897 40 20 40C17.9103 40 16.2162 38.3059 16.2162 36.2162C16.2162 34.1265 17.9103 32.4324 20 32.4324C22.0897 32.4324 23.7838 34.1265 23.7838 36.2162Z" fill="#6E5DCF"/>
<path d="M36.2162 23.7838C34.1265 23.7838 32.4324 22.0897 32.4324 20C32.4324 17.9103 34.1265 16.2162 36.2162 16.2162C38.3059 16.2162 40 17.9103 40 20C40 22.0897 38.3059 23.7838 36.2162 23.7838Z" fill="#6E5DCF"/>
<path d="M3.78378 23.7838C1.69406 23.7838 -9.13448e-08 22.0897 0 20C9.13448e-08 17.9103 1.69406 16.2162 3.78378 16.2162C5.87351 16.2162 7.56757 17.9103 7.56757 20C7.56757 22.0897 5.87351 23.7838 3.78378 23.7838Z" fill="#6E5DCF"/>
<path d="M28.7911 34.1421C27.3134 32.6645 27.3134 30.2687 28.7911 28.7911C30.2688 27.3134 32.6645 27.3134 34.1422 28.7911C35.6198 30.2687 35.6198 32.6645 34.1422 34.1421C32.6645 35.6198 30.2688 35.6198 28.7911 34.1421Z" fill="#6E5DCF"/>
<path d="M5.85786 11.2089C4.3802 9.73128 4.3802 7.33552 5.85786 5.85786C7.33552 4.3802 9.73128 4.3802 11.2089 5.85786C12.6866 7.33552 12.6866 9.73128 11.2089 11.2089C9.73128 12.6866 7.33552 12.6866 5.85786 11.2089Z" fill="#6E5DCF"/>
<path d="M34.1421 11.2089C32.6644 12.6866 30.2687 12.6866 28.791 11.2089C27.3134 9.73123 27.3134 7.33547 28.791 5.85781C30.2687 4.38015 32.6644 4.38015 34.1421 5.85781C35.6198 7.33547 35.6198 9.73123 34.1421 11.2089Z" fill="#6E5DCF"/>
<path d="M11.209 34.1421C9.73132 35.6198 7.33556 35.6198 5.8579 34.1421C4.38024 32.6645 4.38024 30.2687 5.8579 28.7911C7.33556 27.3134 9.73132 27.3134 11.209 28.7911C12.6866 30.2687 12.6866 32.6645 11.209 34.1421Z" fill="#6E5DCF"/>
</svg>
