<svg width="373" height="505" viewBox="0 0 373 505" fill="none" xmlns="http://www.w3.org/2000/svg">
<path opacity="0.86" d="M373.25 113.25C373.526 113.25 373.75 113.026 373.75 112.75C373.75 112.474 373.526 112.25 373.25 112.25C372.974 112.25 372.75 112.474 372.75 112.75C372.75 113.026 372.974 113.25 373.25 113.25Z" fill="#8072CF"/>
<path opacity="0.86" d="M372.75 98.25C373.026 98.25 373.25 98.0261 373.25 97.75C373.25 97.4739 373.026 97.25 372.75 97.25C372.474 97.25 372.25 97.4739 372.25 97.75C372.25 98.0261 372.474 98.25 372.75 98.25Z" fill="#8072CF"/>
<path opacity="0.84" d="M368.75 105.5C369.164 105.5 369.5 105.164 369.5 104.75C369.5 104.336 369.164 104 368.75 104C368.336 104 368 104.336 368 104.75C368 105.164 368.336 105.5 368.75 105.5Z" fill="#8072CF"/>
<path opacity="0.84" d="M373.25 89C373.664 89 374 88.6642 374 88.25C374 87.8358 373.664 87.5 373.25 87.5C372.836 87.5 372.5 87.8358 372.5 88.25C372.5 88.6642 372.836 89 373.25 89Z" fill="#8072CF"/>
<path opacity="0.83" d="M366.75 114.5C367.164 114.5 367.5 114.164 367.5 113.75C367.5 113.336 367.164 113 366.75 113C366.336 113 366 113.336 366 113.75C366 114.164 366.336 114.5 366.75 114.5Z" fill="#8072CF"/>
<path opacity="0.82" d="M366.75 95.5C367.164 95.5 367.5 95.1642 367.5 94.75C367.5 94.3358 367.164 94 366.75 94C366.336 94 366 94.3358 366 94.75C366 95.1642 366.336 95.5 366.75 95.5Z" fill="#8072CF"/>
<path opacity="0.81" d="M368.25 124.5C368.664 124.5 369 124.164 369 123.75C369 123.336 368.664 123 368.25 123C367.836 123 367.5 123.336 367.5 123.75C367.5 124.164 367.836 124.5 368.25 124.5Z" fill="#8072CF"/>
<path opacity="0.81" d="M362.25 104.5C362.664 104.5 363 104.164 363 103.75C363 103.336 362.664 103 362.25 103C361.836 103 361.5 103.336 361.5 103.75C361.5 104.164 361.836 104.5 362.25 104.5Z" fill="#8072CF"/>
<path opacity="0.8" d="M368.75 84.5C369.164 84.5 369.5 84.1642 369.5 83.75C369.5 83.3358 369.164 83 368.75 83C368.336 83 368 83.3358 368 83.75C368 84.1642 368.336 84.5 368.75 84.5Z" fill="#8072CF"/>
<path opacity="0.79" d="M372.75 134.5C373.164 134.5 373.5 134.164 373.5 133.75C373.5 133.336 373.164 133 372.75 133C372.336 133 372 133.336 372 133.75C372 134.164 372.336 134.5 372.75 134.5Z" fill="#8072CF"/>
<path opacity="0.79" d="M360.75 115.5C361.164 115.5 361.5 115.164 361.5 114.75C361.5 114.336 361.164 114 360.75 114C360.336 114 360 114.336 360 114.75C360 115.164 360.336 115.5 360.75 115.5Z" fill="#8072CF"/>
<path opacity="0.79" d="M361.25 92.5C361.664 92.5 362 92.1642 362 91.75C362 91.3358 361.664 91 361.25 91C360.836 91 360.5 91.3358 360.5 91.75C360.5 92.1642 360.836 92.5 361.25 92.5Z" fill="#8072CF"/>
<path opacity="0.77" d="M362.25 127C362.664 127 363 126.664 363 126.25C363 125.836 362.664 125.5 362.25 125.5C361.836 125.5 361.5 125.836 361.5 126.25C361.5 126.664 361.836 127 362.25 127Z" fill="#8072CF"/>
<path opacity="0.77" d="M356.25 103C356.664 103 357 102.664 357 102.25C357 101.836 356.664 101.5 356.25 101.5C355.836 101.5 355.5 101.836 355.5 102.25C355.5 102.664 355.836 103 356.25 103Z" fill="#8072CF"/>
<path opacity="0.77" d="M364.25 79.5C364.664 79.5 365 79.1642 365 78.75C365 78.3358 364.664 78 364.25 78C363.836 78 363.5 78.3358 363.5 78.75C363.5 79.1642 363.836 79.5 364.25 79.5Z" fill="#8072CF"/>
<path opacity="0.75" d="M367.25 138C367.664 138 368 137.664 368 137.25C368 136.836 367.664 136.5 367.25 136.5C366.836 136.5 366.5 136.836 366.5 137.25C366.5 137.664 366.836 138 367.25 138Z" fill="#8072CF"/>
<path opacity="0.75" d="M354.25 115.5C354.664 115.5 355 115.164 355 114.75C355 114.336 354.664 114 354.25 114C353.836 114 353.5 114.336 353.5 114.75C353.5 115.164 353.836 115.5 354.25 115.5Z" fill="#8072CF"/>
<path opacity="0.75" d="M355.75 89C356.164 89 356.5 88.6642 356.5 88.25C356.5 87.8358 356.164 87.5 355.75 87.5C355.336 87.5 355 87.8358 355 88.25C355 88.6642 355.336 89 355.75 89Z" fill="#8072CF"/>
<path opacity="0.75" d="M372.25 68.25C372.802 68.25 373.25 67.8023 373.25 67.25C373.25 66.6977 372.802 66.25 372.25 66.25C371.698 66.25 371.25 66.6977 371.25 67.25C371.25 67.8023 371.698 68.25 372.25 68.25Z" fill="#8072CF"/>
<path opacity="0.73" d="M355.75 128.75C356.302 128.75 356.75 128.302 356.75 127.75C356.75 127.198 356.302 126.75 355.75 126.75C355.198 126.75 354.75 127.198 354.75 127.75C354.75 128.302 355.198 128.75 355.75 128.75Z" fill="#8072CF"/>
<path opacity="0.73" d="M349.75 101.25C350.302 101.25 350.75 100.802 350.75 100.25C350.75 99.6977 350.302 99.25 349.75 99.25C349.198 99.25 348.75 99.6977 348.75 100.25C348.75 100.802 349.198 101.25 349.75 101.25Z" fill="#8072CF"/>
<path opacity="0.73" d="M360.75 74.75C361.302 74.75 361.75 74.3023 361.75 73.75C361.75 73.1977 361.302 72.75 360.75 72.75C360.198 72.75 359.75 73.1977 359.75 73.75C359.75 74.3023 360.198 74.75 360.75 74.75Z" fill="#8072CF"/>
<path opacity="0.72" d="M361.75 141.75C362.302 141.75 362.75 141.302 362.75 140.75C362.75 140.198 362.302 139.75 361.75 139.75C361.198 139.75 360.75 140.198 360.75 140.75C360.75 141.302 361.198 141.75 361.75 141.75Z" fill="#8072CF"/>
<path opacity="0.71" d="M347.75 115.25C348.302 115.25 348.75 114.802 348.75 114.25C348.75 113.698 348.302 113.25 347.75 113.25C347.198 113.25 346.75 113.698 346.75 114.25C346.75 114.802 347.198 115.25 347.75 115.25Z" fill="#8072CF"/>
<path opacity="0.71" d="M350.75 85.25C351.302 85.25 351.75 84.8023 351.75 84.25C351.75 83.6977 351.302 83.25 350.75 83.25C350.198 83.25 349.75 83.6977 349.75 84.25C349.75 84.8023 350.198 85.25 350.75 85.25Z" fill="#8072CF"/>
<path opacity="0.71" d="M370.25 61.75C370.802 61.75 371.25 61.3023 371.25 60.75C371.25 60.1977 370.802 59.75 370.25 59.75C369.698 59.75 369.25 60.1977 369.25 60.75C369.25 61.3023 369.698 61.75 370.25 61.75Z" fill="#8072CF"/>
<path opacity="0.7" d="M372.25 153.25C372.802 153.25 373.25 152.802 373.25 152.25C373.25 151.698 372.802 151.25 372.25 151.25C371.698 151.25 371.25 151.698 371.25 152.25C371.25 152.802 371.698 153.25 372.25 153.25Z" fill="#8072CF"/>
<path opacity="0.7" d="M349.75 130.25C350.302 130.25 350.75 129.802 350.75 129.25C350.75 128.698 350.302 128.25 349.75 128.25C349.198 128.25 348.75 128.698 348.75 129.25C348.75 129.802 349.198 130.25 349.75 130.25Z" fill="#8072CF"/>
<path opacity="0.7" d="M343.75 98.75C344.302 98.75 344.75 98.3023 344.75 97.75C344.75 97.1977 344.302 96.75 343.75 96.75C343.198 96.75 342.75 97.1977 342.75 97.75C342.75 98.3023 343.198 98.75 343.75 98.75Z" fill="#8072CF"/>
<path opacity="0.69" d="M356.75 69.25C357.302 69.25 357.75 68.8023 357.75 68.25C357.75 67.6977 357.302 67.25 356.75 67.25C356.198 67.25 355.75 67.6977 355.75 68.25C355.75 68.8023 356.198 69.25 356.75 69.25Z" fill="#8072CF"/>
<path opacity="0.68" d="M356.25 144.75C356.802 144.75 357.25 144.302 357.25 143.75C357.25 143.198 356.802 142.75 356.25 142.75C355.698 142.75 355.25 143.198 355.25 143.75C355.25 144.302 355.698 144.75 356.25 144.75Z" fill="#8072CF"/>
<path opacity="0.68" d="M341.25 114.75C341.802 114.75 342.25 114.302 342.25 113.75C342.25 113.198 341.802 112.75 341.25 112.75C340.698 112.75 340.25 113.198 340.25 113.75C340.25 114.302 340.698 114.75 341.25 114.75Z" fill="#8072CF"/>
<path opacity="0.68" d="M345.75 80.75C346.302 80.75 346.75 80.3023 346.75 79.75C346.75 79.1977 346.302 78.75 345.75 78.75C345.198 78.75 344.75 79.1977 344.75 79.75C344.75 80.3023 345.198 80.75 345.75 80.75Z" fill="#8072CF"/>
<path opacity="0.67" d="M368.75 55.75C369.302 55.75 369.75 55.3023 369.75 54.75C369.75 54.1977 369.302 53.75 368.75 53.75C368.198 53.75 367.75 54.1977 367.75 54.75C367.75 55.3023 368.198 55.75 368.75 55.75Z" fill="#8072CF"/>
<path opacity="0.66" d="M367.25 157.75C367.802 157.75 368.25 157.302 368.25 156.75C368.25 156.198 367.802 155.75 367.25 155.75C366.698 155.75 366.25 156.198 366.25 156.75C366.25 157.302 366.698 157.75 367.25 157.75Z" fill="#8072CF"/>
<path opacity="0.66" d="M343.25 131.25C343.802 131.25 344.25 130.802 344.25 130.25C344.25 129.698 343.802 129.25 343.25 129.25C342.698 129.25 342.25 129.698 342.25 130.25C342.25 130.802 342.698 131.25 343.25 131.25Z" fill="#8072CF"/>
<path opacity="0.66" d="M337.75 96.25C338.302 96.25 338.75 95.8023 338.75 95.25C338.75 94.6977 338.302 94.25 337.75 94.25C337.198 94.25 336.75 94.6977 336.75 95.25C336.75 95.8023 337.198 96.25 337.75 96.25Z" fill="#8072CF"/>
<path opacity="0.66" d="M353.75 63.75C354.302 63.75 354.75 63.3023 354.75 62.75C354.75 62.1977 354.302 61.75 353.75 61.75C353.198 61.75 352.75 62.1977 352.75 62.75C352.75 63.3023 353.198 63.75 353.75 63.75Z" fill="#8072CF"/>
<path opacity="0.64" d="M350.25 148C350.94 148 351.5 147.44 351.5 146.75C351.5 146.06 350.94 145.5 350.25 145.5C349.56 145.5 349 146.06 349 146.75C349 147.44 349.56 148 350.25 148Z" fill="#8072CF"/>
<path opacity="0.64" d="M334.75 114C335.44 114 336 113.44 336 112.75C336 112.06 335.44 111.5 334.75 111.5C334.06 111.5 333.5 112.06 333.5 112.75C333.5 113.44 334.06 114 334.75 114Z" fill="#8072CF"/>
<path opacity="0.64" d="M340.75 76.5C341.44 76.5 342 75.9404 342 75.25C342 74.5596 341.44 74 340.75 74C340.06 74 339.5 74.5596 339.5 75.25C339.5 75.9404 340.06 76.5 340.75 76.5Z" fill="#8072CF"/>
<path opacity="0.64" d="M367.25 49.5C367.94 49.5 368.5 48.9404 368.5 48.25C368.5 47.5596 367.94 47 367.25 47C366.56 47 366 47.5596 366 48.25C366 48.9404 366.56 49.5 367.25 49.5Z" fill="#8072CF"/>
<path opacity="0.63" d="M362.25 162C362.94 162 363.5 161.44 363.5 160.75C363.5 160.06 362.94 159.5 362.25 159.5C361.56 159.5 361 160.06 361 160.75C361 161.44 361.56 162 362.25 162Z" fill="#8072CF"/>
<path opacity="0.62" d="M336.25 132.5C336.94 132.5 337.5 131.94 337.5 131.25C337.5 130.56 336.94 130 336.25 130C335.56 130 335 130.56 335 131.25C335 131.94 335.56 132.5 336.25 132.5Z" fill="#8072CF"/>
<path opacity="0.62" d="M332.25 93C332.94 93 333.5 92.4404 333.5 91.75C333.5 91.0596 332.94 90.5 332.25 90.5C331.56 90.5 331 91.0596 331 91.75C331 92.4404 331.56 93 332.25 93Z" fill="#8072CF"/>
<path opacity="0.62" d="M350.75 58C351.44 58 352 57.4404 352 56.75C352 56.0596 351.44 55.5 350.75 55.5C350.06 55.5 349.5 56.0596 349.5 56.75C349.5 57.4404 350.06 58 350.75 58Z" fill="#8072CF"/>
<path opacity="0.61" d="M343.75 150.5C344.44 150.5 345 149.94 345 149.25C345 148.56 344.44 148 343.75 148C343.06 148 342.5 148.56 342.5 149.25C342.5 149.94 343.06 150.5 343.75 150.5Z" fill="#8072CF"/>
<path opacity="0.6" d="M328.25 112C328.94 112 329.5 111.44 329.5 110.75C329.5 110.06 328.94 109.5 328.25 109.5C327.56 109.5 327 110.06 327 110.75C327 111.44 327.56 112 328.25 112Z" fill="#8072CF"/>
<path opacity="0.6" d="M336.25 71.5C336.94 71.5 337.5 70.9404 337.5 70.25C337.5 69.5596 336.94 69 336.25 69C335.56 69 335 69.5596 335 70.25C335 70.9404 335.56 71.5 336.25 71.5Z" fill="#8072CF"/>
<path opacity="0.6" d="M366.25 42.5C366.94 42.5 367.5 41.9404 367.5 41.25C367.5 40.5596 366.94 40 366.25 40C365.56 40 365 40.5596 365 41.25C365 41.9404 365.56 42.5 366.25 42.5Z" fill="#8072CF"/>
<path opacity="0.59" d="M356.75 166C357.44 166 358 165.44 358 164.75C358 164.06 357.44 163.5 356.75 163.5C356.06 163.5 355.5 164.06 355.5 164.75C355.5 165.44 356.06 166 356.75 166Z" fill="#8072CF"/>
<path opacity="0.59" d="M329.75 132.5C330.44 132.5 331 131.94 331 131.25C331 130.56 330.44 130 329.75 130C329.06 130 328.5 130.56 328.5 131.25C328.5 131.94 329.06 132.5 329.75 132.5Z" fill="#8072CF"/>
<path opacity="0.58" d="M326.25 89.5C326.94 89.5 327.5 88.9404 327.5 88.25C327.5 87.5596 326.94 87 326.25 87C325.56 87 325 87.5596 325 88.25C325 88.9404 325.56 89.5 326.25 89.5Z" fill="#8072CF"/>
<path opacity="0.58" d="M347.75 52C348.44 52 349 51.4404 349 50.75C349 50.0596 348.44 49.5 347.75 49.5C347.06 49.5 346.5 50.0596 346.5 50.75C346.5 51.4404 347.06 52 347.75 52Z" fill="#8072CF"/>
<path opacity="0.57" d="M337.25 152.5C337.94 152.5 338.5 151.94 338.5 151.25C338.5 150.56 337.94 150 337.25 150C336.56 150 336 150.56 336 151.25C336 151.94 336.56 152.5 337.25 152.5Z" fill="#8072CF"/>
<path opacity="0.57" d="M321.75 110C322.44 110 323 109.44 323 108.75C323 108.06 322.44 107.5 321.75 107.5C321.06 107.5 320.5 108.06 320.5 108.75C320.5 109.44 321.06 110 321.75 110Z" fill="#8072CF"/>
<path opacity="0.57" d="M332.25 66.5C332.94 66.5 333.5 65.9404 333.5 65.25C333.5 64.5596 332.94 64 332.25 64C331.56 64 331 64.5596 331 65.25C331 65.9404 331.56 66.5 332.25 66.5Z" fill="#8072CF"/>
<path opacity="0.56" d="M365.75 36C366.44 36 367 35.4404 367 34.75C367 34.0596 366.44 33.5 365.75 33.5C365.06 33.5 364.5 34.0596 364.5 34.75C364.5 35.4404 365.06 36 365.75 36Z" fill="#8072CF"/>
<path opacity="0.55" d="M351.25 169.5C351.94 169.5 352.5 168.94 352.5 168.25C352.5 167.56 351.94 167 351.25 167C350.56 167 350 167.56 350 168.25C350 168.94 350.56 169.5 351.25 169.5Z" fill="#8072CF"/>
<path opacity="0.55" d="M322.75 132.75C323.578 132.75 324.25 132.078 324.25 131.25C324.25 130.422 323.578 129.75 322.75 129.75C321.922 129.75 321.25 130.422 321.25 131.25C321.25 132.078 321.922 132.75 322.75 132.75Z" fill="#8072CF"/>
<path opacity="0.55" d="M320.75 85.75C321.578 85.75 322.25 85.0784 322.25 84.25C322.25 83.4216 321.578 82.75 320.75 82.75C319.922 82.75 319.25 83.4216 319.25 84.25C319.25 85.0784 319.922 85.75 320.75 85.75Z" fill="#8072CF"/>
<path opacity="0.55" d="M345.75 45.75C346.578 45.75 347.25 45.0784 347.25 44.25C347.25 43.4216 346.578 42.75 345.75 42.75C344.922 42.75 344.25 43.4216 344.25 44.25C344.25 45.0784 344.922 45.75 345.75 45.75Z" fill="#8072CF"/>
<path opacity="0.53" d="M369.75 183.25C370.578 183.25 371.25 182.578 371.25 181.75C371.25 180.922 370.578 180.25 369.75 180.25C368.922 180.25 368.25 180.922 368.25 181.75C368.25 182.578 368.922 183.25 369.75 183.25Z" fill="#8072CF"/>
<path opacity="0.53" d="M330.75 154.25C331.578 154.25 332.25 153.578 332.25 152.75C332.25 151.922 331.578 151.25 330.75 151.25C329.922 151.25 329.25 151.922 329.25 152.75C329.25 153.578 329.922 154.25 330.75 154.25Z" fill="#8072CF"/>
<path opacity="0.53" d="M315.25 108.25C316.078 108.25 316.75 107.578 316.75 106.75C316.75 105.922 316.078 105.25 315.25 105.25C314.422 105.25 313.75 105.922 313.75 106.75C313.75 107.578 314.422 108.25 315.25 108.25Z" fill="#8072CF"/>
<path opacity="0.53" d="M328.25 60.75C329.078 60.75 329.75 60.0784 329.75 59.25C329.75 58.4216 329.078 57.75 328.25 57.75C327.422 57.75 326.75 58.4216 326.75 59.25C326.75 60.0784 327.422 60.75 328.25 60.75Z" fill="#8072CF"/>
<path opacity="0.53" d="M365.75 29.25C366.578 29.25 367.25 28.5784 367.25 27.75C367.25 26.9216 366.578 26.25 365.75 26.25C364.922 26.25 364.25 26.9216 364.25 27.75C364.25 28.5784 364.922 29.25 365.75 29.25Z" fill="#8072CF"/>
<path opacity="0.51" d="M345.25 173.25C346.078 173.25 346.75 172.578 346.75 171.75C346.75 170.922 346.078 170.25 345.25 170.25C344.422 170.25 343.75 170.922 343.75 171.75C343.75 172.578 344.422 173.25 345.25 173.25Z" fill="#8072CF"/>
<path opacity="0.51" d="M316.25 131.75C317.078 131.75 317.75 131.078 317.75 130.25C317.75 129.422 317.078 128.75 316.25 128.75C315.422 128.75 314.75 129.422 314.75 130.25C314.75 131.078 315.422 131.75 316.25 131.75Z" fill="#8072CF"/>
<path opacity="0.51" d="M315.75 81.25C316.578 81.25 317.25 80.5784 317.25 79.75C317.25 78.9216 316.578 78.25 315.75 78.25C314.922 78.25 314.25 78.9216 314.25 79.75C314.25 80.5784 314.922 81.25 315.75 81.25Z" fill="#8072CF"/>
<path opacity="0.51" d="M343.75 38.75C344.578 38.75 345.25 38.0784 345.25 37.25C345.25 36.4216 344.578 35.75 343.75 35.75C342.922 35.75 342.25 36.4216 342.25 37.25C342.25 38.0784 342.922 38.75 343.75 38.75Z" fill="#8072CF"/>
<path opacity="0.5" d="M364.75 188.25C365.578 188.25 366.25 187.578 366.25 186.75C366.25 185.922 365.578 185.25 364.75 185.25C363.922 185.25 363.25 185.922 363.25 186.75C363.25 187.578 363.922 188.25 364.75 188.25Z" fill="#8072CF"/>
<path opacity="0.5" d="M324.25 155.25C325.078 155.25 325.75 154.578 325.75 153.75C325.75 152.922 325.078 152.25 324.25 152.25C323.422 152.25 322.75 152.922 322.75 153.75C322.75 154.578 323.422 155.25 324.25 155.25Z" fill="#8072CF"/>
<path opacity="0.49" d="M308.75 105.25C309.578 105.25 310.25 104.578 310.25 103.75C310.25 102.922 309.578 102.25 308.75 102.25C307.922 102.25 307.25 102.922 307.25 103.75C307.25 104.578 307.922 105.25 308.75 105.25Z" fill="#8072CF"/>
<path opacity="0.49" d="M324.75 54.75C325.578 54.75 326.25 54.0784 326.25 53.25C326.25 52.4216 325.578 51.75 324.75 51.75C323.922 51.75 323.25 52.4216 323.25 53.25C323.25 54.0784 323.922 54.75 324.75 54.75Z" fill="#8072CF"/>
<path opacity="0.49" d="M366.25 22.25C367.078 22.25 367.75 21.5784 367.75 20.75C367.75 19.9216 367.078 19.25 366.25 19.25C365.422 19.25 364.75 19.9216 364.75 20.75C364.75 21.5784 365.422 22.25 366.25 22.25Z" fill="#8072CF"/>
<path opacity="0.48" d="M338.75 176.25C339.578 176.25 340.25 175.578 340.25 174.75C340.25 173.922 339.578 173.25 338.75 173.25C337.922 173.25 337.25 173.922 337.25 174.75C337.25 175.578 337.922 176.25 338.75 176.25Z" fill="#8072CF"/>
<path opacity="0.48" d="M309.25 130.75C310.078 130.75 310.75 130.078 310.75 129.25C310.75 128.422 310.078 127.75 309.25 127.75C308.422 127.75 307.75 128.422 307.75 129.25C307.75 130.078 308.422 130.75 309.25 130.75Z" fill="#8072CF"/>
<path opacity="0.47" d="M310.75 76.25C311.578 76.25 312.25 75.5784 312.25 74.75C312.25 73.9216 311.578 73.25 310.75 73.25C309.922 73.25 309.25 73.9216 309.25 74.75C309.25 75.5784 309.922 76.25 310.75 76.25Z" fill="#8072CF"/>
<path opacity="0.47" d="M342.25 32.25C343.078 32.25 343.75 31.5784 343.75 30.75C343.75 29.9216 343.078 29.25 342.25 29.25C341.422 29.25 340.75 29.9216 340.75 30.75C340.75 31.5784 341.422 32.25 342.25 32.25Z" fill="#8072CF"/>
<path opacity="0.46" d="M359.25 192.75C360.078 192.75 360.75 192.078 360.75 191.25C360.75 190.422 360.078 189.75 359.25 189.75C358.422 189.75 357.75 190.422 357.75 191.25C357.75 192.078 358.422 192.75 359.25 192.75Z" fill="#8072CF"/>
<path opacity="0.46" d="M317.25 156.25C318.078 156.25 318.75 155.578 318.75 154.75C318.75 153.922 318.078 153.25 317.25 153.25C316.422 153.25 315.75 153.922 315.75 154.75C315.75 155.578 316.422 156.25 317.25 156.25Z" fill="#8072CF"/>
<path opacity="0.46" d="M302.75 101.75C303.578 101.75 304.25 101.078 304.25 100.25C304.25 99.4216 303.578 98.75 302.75 98.75C301.922 98.75 301.25 99.4216 301.25 100.25C301.25 101.078 301.922 101.75 302.75 101.75Z" fill="#8072CF"/>
<path opacity="0.45" d="M321.25 48.75C322.078 48.75 322.75 48.0784 322.75 47.25C322.75 46.4216 322.078 45.75 321.25 45.75C320.422 45.75 319.75 46.4216 319.75 47.25C319.75 48.0784 320.422 48.75 321.25 48.75Z" fill="#8072CF"/>
<path opacity="0.45" d="M367.25 15.25C368.078 15.25 368.75 14.5784 368.75 13.75C368.75 12.9216 368.078 12.25 367.25 12.25C366.422 12.25 365.75 12.9216 365.75 13.75C365.75 14.5784 366.422 15.25 367.25 15.25Z" fill="#8072CF"/>
<path opacity="0.44" d="M332.25 179C333.216 179 334 178.216 334 177.25C334 176.284 333.216 175.5 332.25 175.5C331.284 175.5 330.5 176.284 330.5 177.25C330.5 178.216 331.284 179 332.25 179Z" fill="#8072CF"/>
<path opacity="0.44" d="M302.25 129.5C303.216 129.5 304 128.716 304 127.75C304 126.784 303.216 126 302.25 126C301.284 126 300.5 126.784 300.5 127.75C300.5 128.716 301.284 129.5 302.25 129.5Z" fill="#8072CF"/>
<path opacity="0.44" d="M305.75 71.5C306.716 71.5 307.5 70.7165 307.5 69.75C307.5 68.7835 306.716 68 305.75 68C304.784 68 304 68.7835 304 69.75C304 70.7165 304.784 71.5 305.75 71.5Z" fill="#8072CF"/>
<path opacity="0.44" d="M341.25 25.5C342.216 25.5 343 24.7165 343 23.75C343 22.7835 342.216 22 341.25 22C340.284 22 339.5 22.7835 339.5 23.75C339.5 24.7165 340.284 25.5 341.25 25.5Z" fill="#8072CF"/>
<path opacity="0.42" d="M353.75 197.5C354.716 197.5 355.5 196.716 355.5 195.75C355.5 194.784 354.716 194 353.75 194C352.784 194 352 194.784 352 195.75C352 196.716 352.784 197.5 353.75 197.5Z" fill="#8072CF"/>
<path opacity="0.42" d="M309.75 157C310.716 157 311.5 156.216 311.5 155.25C311.5 154.284 310.716 153.5 309.75 153.5C308.784 153.5 308 154.284 308 155.25C308 156.216 308.784 157 309.75 157Z" fill="#8072CF"/>
<path opacity="0.42" d="M296.75 98.5C297.716 98.5 298.5 97.7165 298.5 96.75C298.5 95.7835 297.716 95 296.75 95C295.784 95 295 95.7835 295 96.75C295 97.7165 295.784 98.5 296.75 98.5Z" fill="#8072CF"/>
<path opacity="0.42" d="M318.75 42.5C319.716 42.5 320.5 41.7165 320.5 40.75C320.5 39.7835 319.716 39 318.75 39C317.784 39 317 39.7835 317 40.75C317 41.7165 317.784 42.5 318.75 42.5Z" fill="#8072CF"/>
<path opacity="0.42" d="M368.25 8.5C369.216 8.5 370 7.7165 370 6.75C370 5.7835 369.216 5 368.25 5C367.284 5 366.5 5.7835 366.5 6.75C366.5 7.7165 367.284 8.5 368.25 8.5Z" fill="#8072CF"/>
<path opacity="0.4" d="M325.25 181.5C326.216 181.5 327 180.716 327 179.75C327 178.784 326.216 178 325.25 178C324.284 178 323.5 178.784 323.5 179.75C323.5 180.716 324.284 181.5 325.25 181.5Z" fill="#8072CF"/>
<path opacity="0.4" d="M295.25 127.5C296.216 127.5 297 126.716 297 125.75C297 124.784 296.216 124 295.25 124C294.284 124 293.5 124.784 293.5 125.75C293.5 126.716 294.284 127.5 295.25 127.5Z" fill="#8072CF"/>
<path opacity="0.4" d="M301.25 66C302.216 66 303 65.2165 303 64.25C303 63.2835 302.216 62.5 301.25 62.5C300.284 62.5 299.5 63.2835 299.5 64.25C299.5 65.2165 300.284 66 301.25 66Z" fill="#8072CF"/>
<path opacity="0.4" d="M340.75 18.5C341.716 18.5 342.5 17.7165 342.5 16.75C342.5 15.7835 341.716 15 340.75 15C339.784 15 339 15.7835 339 16.75C339 17.7165 339.784 18.5 340.75 18.5Z" fill="#8072CF"/>
<path opacity="0.39" d="M347.75 201.5C348.716 201.5 349.5 200.716 349.5 199.75C349.5 198.784 348.716 198 347.75 198C346.784 198 346 198.784 346 199.75C346 200.716 346.784 201.5 347.75 201.5Z" fill="#8072CF"/>
<path opacity="0.38" d="M302.75 157C303.716 157 304.5 156.216 304.5 155.25C304.5 154.284 303.716 153.5 302.75 153.5C301.784 153.5 301 154.284 301 155.25C301 156.216 301.784 157 302.75 157Z" fill="#8072CF"/>
<path opacity="0.38" d="M290.75 94.5C291.716 94.5 292.5 93.7165 292.5 92.75C292.5 91.7835 291.716 91 290.75 91C289.784 91 289 91.7835 289 92.75C289 93.7165 289.784 94.5 290.75 94.5Z" fill="#8072CF"/>
<path opacity="0.38" d="M316.25 36C317.216 36 318 35.2165 318 34.25C318 33.2835 317.216 32.5 316.25 32.5C315.284 32.5 314.5 33.2835 314.5 34.25C314.5 35.2165 315.284 36 316.25 36Z" fill="#8072CF"/>
<path opacity="0.38" d="M370.25 1.5C371.216 1.5 372 0.716498 372 -0.25C372 -1.2165 371.216 -2 370.25 -2C369.284 -2 368.5 -1.2165 368.5 -0.25C368.5 0.716498 369.284 1.5 370.25 1.5Z" fill="#8072CF"/>
<path opacity="0.37" d="M318.25 183.5C319.216 183.5 320 182.716 320 181.75C320 180.784 319.216 180 318.25 180C317.284 180 316.5 180.784 316.5 181.75C316.5 182.716 317.284 183.5 318.25 183.5Z" fill="#8072CF"/>
<path opacity="0.36" d="M288.75 125C289.716 125 290.5 124.216 290.5 123.25C290.5 122.284 289.716 121.5 288.75 121.5C287.784 121.5 287 122.284 287 123.25C287 124.216 287.784 125 288.75 125Z" fill="#8072CF"/>
<path opacity="0.36" d="M296.75 60C297.716 60 298.5 59.2165 298.5 58.25C298.5 57.2835 297.716 56.5 296.75 56.5C295.784 56.5 295 57.2835 295 58.25C295 59.2165 295.784 60 296.75 60Z" fill="#8072CF"/>
<path opacity="0.36" d="M340.25 11C341.216 11 342 10.2165 342 9.25C342 8.2835 341.216 7.5 340.25 7.5C339.284 7.5 338.5 8.2835 338.5 9.25C338.5 10.2165 339.284 11 340.25 11Z" fill="#8072CF"/>
<path opacity="0.35" d="M341.75 205.25C342.855 205.25 343.75 204.355 343.75 203.25C343.75 202.145 342.855 201.25 341.75 201.25C340.645 201.25 339.75 202.145 339.75 203.25C339.75 204.355 340.645 205.25 341.75 205.25Z" fill="#8072CF"/>
<path opacity="0.35" d="M295.25 156.75C296.355 156.75 297.25 155.855 297.25 154.75C297.25 153.645 296.355 152.75 295.25 152.75C294.145 152.75 293.25 153.645 293.25 154.75C293.25 155.855 294.145 156.75 295.25 156.75Z" fill="#8072CF"/>
<path opacity="0.35" d="M284.75 90.25C285.855 90.25 286.75 89.3546 286.75 88.25C286.75 87.1454 285.855 86.25 284.75 86.25C283.645 86.25 282.75 87.1454 282.75 88.25C282.75 89.3546 283.645 90.25 284.75 90.25Z" fill="#8072CF"/>
<path opacity="0.34" d="M313.75 29.25C314.855 29.25 315.75 28.3546 315.75 27.25C315.75 26.1454 314.855 25.25 313.75 25.25C312.645 25.25 311.75 26.1454 311.75 27.25C311.75 28.3546 312.645 29.25 313.75 29.25Z" fill="#8072CF"/>
<path opacity="0.33" d="M370.75 220.25C371.855 220.25 372.75 219.355 372.75 218.25C372.75 217.145 371.855 216.25 370.75 216.25C369.645 216.25 368.75 217.145 368.75 218.25C368.75 219.355 369.645 220.25 370.75 220.25Z" fill="#8072CF"/>
<path opacity="0.33" d="M311.25 185.25C312.355 185.25 313.25 184.355 313.25 183.25C313.25 182.145 312.355 181.25 311.25 181.25C310.145 181.25 309.25 182.145 309.25 183.25C309.25 184.355 310.145 185.25 311.25 185.25Z" fill="#8072CF"/>
<path opacity="0.33" d="M281.75 122.75C282.855 122.75 283.75 121.855 283.75 120.75C283.75 119.645 282.855 118.75 281.75 118.75C280.645 118.75 279.75 119.645 279.75 120.75C279.75 121.855 280.645 122.75 281.75 122.75Z" fill="#8072CF"/>
<path opacity="0.33" d="M292.75 54.25C293.855 54.25 294.75 53.3546 294.75 52.25C294.75 51.1454 293.855 50.25 292.75 50.25C291.645 50.25 290.75 51.1454 290.75 52.25C290.75 53.3546 291.645 54.25 292.75 54.25Z" fill="#8072CF"/>
<path opacity="0.32" d="M340.75 3.75C341.855 3.75 342.75 2.85457 342.75 1.75C342.75 0.64543 341.855 -0.25 340.75 -0.25C339.645 -0.25 338.75 0.64543 338.75 1.75C338.75 2.85457 339.645 3.75 340.75 3.75Z" fill="#8072CF"/>
<path opacity="0.31" d="M334.75 208.75C335.855 208.75 336.75 207.855 336.75 206.75C336.75 205.645 335.855 204.75 334.75 204.75C333.645 204.75 332.75 205.645 332.75 206.75C332.75 207.855 333.645 208.75 334.75 208.75Z" fill="#8072CF"/>
<path opacity="0.31" d="M288.25 155.75C289.355 155.75 290.25 154.855 290.25 153.75C290.25 152.645 289.355 151.75 288.25 151.75C287.145 151.75 286.25 152.645 286.25 153.75C286.25 154.855 287.145 155.75 288.25 155.75Z" fill="#8072CF"/>
<path opacity="0.31" d="M279.25 85.25C280.355 85.25 281.25 84.3546 281.25 83.25C281.25 82.1454 280.355 81.25 279.25 81.25C278.145 81.25 277.25 82.1454 277.25 83.25C277.25 84.3546 278.145 85.25 279.25 85.25Z" fill="#8072CF"/>
<path opacity="0.31" d="M311.75 21.75C312.855 21.75 313.75 20.8546 313.75 19.75C313.75 18.6454 312.855 17.75 311.75 17.75C310.645 17.75 309.75 18.6454 309.75 19.75C309.75 20.8546 310.645 21.75 311.75 21.75Z" fill="#8072CF"/>
<path opacity="0.29" d="M365.25 225.25C366.355 225.25 367.25 224.355 367.25 223.25C367.25 222.145 366.355 221.25 365.25 221.25C364.145 221.25 363.25 222.145 363.25 223.25C363.25 224.355 364.145 225.25 365.25 225.25Z" fill="#8072CF"/>
<path opacity="0.29" d="M303.75 186.25C304.855 186.25 305.75 185.355 305.75 184.25C305.75 183.145 304.855 182.25 303.75 182.25C302.645 182.25 301.75 183.145 301.75 184.25C301.75 185.355 302.645 186.25 303.75 186.25Z" fill="#8072CF"/>
<path opacity="0.29" d="M274.75 119.25C275.855 119.25 276.75 118.355 276.75 117.25C276.75 116.145 275.855 115.25 274.75 115.25C273.645 115.25 272.75 116.145 272.75 117.25C272.75 118.355 273.645 119.25 274.75 119.25Z" fill="#8072CF"/>
<path opacity="0.29" d="M289.25 47.75C290.355 47.75 291.25 46.8546 291.25 45.75C291.25 44.6454 290.355 43.75 289.25 43.75C288.145 43.75 287.25 44.6454 287.25 45.75C287.25 46.8546 288.145 47.75 289.25 47.75Z" fill="#8072CF"/>
<path opacity="0.28" d="M328.25 211.75C329.355 211.75 330.25 210.855 330.25 209.75C330.25 208.645 329.355 207.75 328.25 207.75C327.145 207.75 326.25 208.645 326.25 209.75C326.25 210.855 327.145 211.75 328.25 211.75Z" fill="#8072CF"/>
<path opacity="0.27" d="M280.75 154.25C281.855 154.25 282.75 153.355 282.75 152.25C282.75 151.145 281.855 150.25 280.75 150.25C279.645 150.25 278.75 151.145 278.75 152.25C278.75 153.355 279.645 154.25 280.75 154.25Z" fill="#8072CF"/>
<path opacity="0.27" d="M273.75 79.75C274.855 79.75 275.75 78.8546 275.75 77.75C275.75 76.6454 274.855 75.75 273.75 75.75C272.645 75.75 271.75 76.6454 271.75 77.75C271.75 78.8546 272.645 79.75 273.75 79.75Z" fill="#8072CF"/>
<path opacity="0.27" d="M310.75 14.25C311.855 14.25 312.75 13.3546 312.75 12.25C312.75 11.1454 311.855 10.25 310.75 10.25C309.645 10.25 308.75 11.1454 308.75 12.25C308.75 13.3546 309.645 14.25 310.75 14.25Z" fill="#8072CF"/>
<path opacity="0.26" d="M359.25 230.25C360.355 230.25 361.25 229.355 361.25 228.25C361.25 227.145 360.355 226.25 359.25 226.25C358.145 226.25 357.25 227.145 357.25 228.25C357.25 229.355 358.145 230.25 359.25 230.25Z" fill="#8072CF"/>
<path opacity="0.26" d="M296.25 187.25C297.355 187.25 298.25 186.355 298.25 185.25C298.25 184.145 297.355 183.25 296.25 183.25C295.145 183.25 294.25 184.145 294.25 185.25C294.25 186.355 295.145 187.25 296.25 187.25Z" fill="#8072CF"/>
<path opacity="0.25" d="M268.25 115.75C269.355 115.75 270.25 114.855 270.25 113.75C270.25 112.645 269.355 111.75 268.25 111.75C267.145 111.75 266.25 112.645 266.25 113.75C266.25 114.855 267.145 115.75 268.25 115.75Z" fill="#8072CF"/>
<path opacity="0.25" d="M285.75 40.75C286.855 40.75 287.75 39.8546 287.75 38.75C287.75 37.6454 286.855 36.75 285.75 36.75C284.645 36.75 283.75 37.6454 283.75 38.75C283.75 39.8546 284.645 40.75 285.75 40.75Z" fill="#8072CF"/>
<path opacity="0.24" d="M320.75 215C321.993 215 323 213.993 323 212.75C323 211.507 321.993 210.5 320.75 210.5C319.507 210.5 318.5 211.507 318.5 212.75C318.5 213.993 319.507 215 320.75 215Z" fill="#8072CF"/>
<path opacity="0.24" d="M273.25 153C274.493 153 275.5 151.993 275.5 150.75C275.5 149.507 274.493 148.5 273.25 148.5C272.007 148.5 271 149.507 271 150.75C271 151.993 272.007 153 273.25 153Z" fill="#8072CF"/>
<path opacity="0.23" d="M268.75 74.5C269.993 74.5 271 73.4926 271 72.25C271 71.0074 269.993 70 268.75 70C267.507 70 266.5 71.0074 266.5 72.25C266.5 73.4926 267.507 74.5 268.75 74.5Z" fill="#8072CF"/>
<path opacity="0.23" d="M309.75 7C310.993 7 312 5.99264 312 4.75C312 3.50736 310.993 2.5 309.75 2.5C308.507 2.5 307.5 3.50736 307.5 4.75C307.5 5.99264 308.507 7 309.75 7Z" fill="#8072CF"/>
<path opacity="0.22" d="M353.25 235C354.493 235 355.5 233.993 355.5 232.75C355.5 231.507 354.493 230.5 353.25 230.5C352.007 230.5 351 231.507 351 232.75C351 233.993 352.007 235 353.25 235Z" fill="#8072CF"/>
<path opacity="0.22" d="M288.75 187.5C289.993 187.5 291 186.493 291 185.25C291 184.007 289.993 183 288.75 183C287.507 183 286.5 184.007 286.5 185.25C286.5 186.493 287.507 187.5 288.75 187.5Z" fill="#8072CF"/>
<path opacity="0.22" d="M261.75 112C262.993 112 264 110.993 264 109.75C264 108.507 262.993 107.5 261.75 107.5C260.507 107.5 259.5 108.507 259.5 109.75C259.5 110.993 260.507 112 261.75 112Z" fill="#8072CF"/>
<path opacity="0.22" d="M282.75 34C283.993 34 285 32.9926 285 31.75C285 30.5074 283.993 29.5 282.75 29.5C281.507 29.5 280.5 30.5074 280.5 31.75C280.5 32.9926 281.507 34 282.75 34Z" fill="#8072CF"/>
<path opacity="0.2" d="M313.75 217C314.993 217 316 215.993 316 214.75C316 213.507 314.993 212.5 313.75 212.5C312.507 212.5 311.5 213.507 311.5 214.75C311.5 215.993 312.507 217 313.75 217Z" fill="#8072CF"/>
<path opacity="0.2" d="M265.75 150.5C266.993 150.5 268 149.493 268 148.25C268 147.007 266.993 146 265.75 146C264.507 146 263.5 147.007 263.5 148.25C263.5 149.493 264.507 150.5 265.75 150.5Z" fill="#8072CF"/>
<path opacity="0.2" d="M263.75 68.5C264.993 68.5 266 67.4926 266 66.25C266 65.0074 264.993 64 263.75 64C262.507 64 261.5 65.0074 261.5 66.25C261.5 67.4926 262.507 68.5 263.75 68.5Z" fill="#8072CF"/>
<path opacity="0.18" d="M346.75 239C347.993 239 349 237.993 349 236.75C349 235.507 347.993 234.5 346.75 234.5C345.507 234.5 344.5 235.507 344.5 236.75C344.5 237.993 345.507 239 346.75 239Z" fill="#8072CF"/>
<path opacity="0.18" d="M280.75 187.5C281.993 187.5 283 186.493 283 185.25C283 184.007 281.993 183 280.75 183C279.507 183 278.5 184.007 278.5 185.25C278.5 186.493 279.507 187.5 280.75 187.5Z" fill="#8072CF"/>
<path opacity="0.18" d="M255.25 107C256.493 107 257.5 105.993 257.5 104.75C257.5 103.507 256.493 102.5 255.25 102.5C254.007 102.5 253 103.507 253 104.75C253 105.993 254.007 107 255.25 107Z" fill="#8072CF"/>
<path opacity="0.18" d="M279.75 26.5C280.993 26.5 282 25.4926 282 24.25C282 23.0074 280.993 22 279.75 22C278.507 22 277.5 23.0074 277.5 24.25C277.5 25.4926 278.507 26.5 279.75 26.5Z" fill="#8072CF"/>
<path opacity="0.16" d="M305.75 219C306.993 219 308 217.993 308 216.75C308 215.507 306.993 214.5 305.75 214.5C304.507 214.5 303.5 215.507 303.5 216.75C303.5 217.993 304.507 219 305.75 219Z" fill="#8072CF"/>
<path opacity="0.16" d="M258.25 148C259.493 148 260.5 146.993 260.5 145.75C260.5 144.507 259.493 143.5 258.25 143.5C257.007 143.5 256 144.507 256 145.75C256 146.993 257.007 148 258.25 148Z" fill="#8072CF"/>
<path opacity="0.16" d="M259.25 62C260.493 62 261.5 60.9926 261.5 59.75C261.5 58.5074 260.493 57.5 259.25 57.5C258.007 57.5 257 58.5074 257 59.75C257 60.9926 258.007 62 259.25 62Z" fill="#8072CF"/>
<path opacity="0.15" d="M339.75 243.25C341.131 243.25 342.25 242.131 342.25 240.75C342.25 239.369 341.131 238.25 339.75 238.25C338.369 238.25 337.25 239.369 337.25 240.75C337.25 242.131 338.369 243.25 339.75 243.25Z" fill="#8072CF"/>
<path opacity="0.14" d="M272.75 187.25C274.131 187.25 275.25 186.131 275.25 184.75C275.25 183.369 274.131 182.25 272.75 182.25C271.369 182.25 270.25 183.369 270.25 184.75C270.25 186.131 271.369 187.25 272.75 187.25Z" fill="#8072CF"/>
<path opacity="0.14" d="M249.25 102.75C250.631 102.75 251.75 101.631 251.75 100.25C251.75 98.8693 250.631 97.75 249.25 97.75C247.869 97.75 246.75 98.8693 246.75 100.25C246.75 101.631 247.869 102.75 249.25 102.75Z" fill="#8072CF"/>
<path opacity="0.14" d="M277.75 19.25C279.131 19.25 280.25 18.1307 280.25 16.75C280.25 15.3693 279.131 14.25 277.75 14.25C276.369 14.25 275.25 15.3693 275.25 16.75C275.25 18.1307 276.369 19.25 277.75 19.25Z" fill="#8072CF"/>
<path opacity="0.13" d="M298.25 221.25C299.631 221.25 300.75 220.131 300.75 218.75C300.75 217.369 299.631 216.25 298.25 216.25C296.869 216.25 295.75 217.369 295.75 218.75C295.75 220.131 296.869 221.25 298.25 221.25Z" fill="#8072CF"/>
<path opacity="0.13" d="M250.75 144.75C252.131 144.75 253.25 143.631 253.25 142.25C253.25 140.869 252.131 139.75 250.75 139.75C249.369 139.75 248.25 140.869 248.25 142.25C248.25 143.631 249.369 144.75 250.75 144.75Z" fill="#8072CF"/>
<path opacity="0.12" d="M254.75 55.25C256.131 55.25 257.25 54.1307 257.25 52.75C257.25 51.3693 256.131 50.25 254.75 50.25C253.369 50.25 252.25 51.3693 252.25 52.75C252.25 54.1307 253.369 55.25 254.75 55.25Z" fill="#8072CF"/>
<path opacity="0.11" d="M332.75 247.25C334.131 247.25 335.25 246.131 335.25 244.75C335.25 243.369 334.131 242.25 332.75 242.25C331.369 242.25 330.25 243.369 330.25 244.75C330.25 246.131 331.369 247.25 332.75 247.25Z" fill="#8072CF"/>
<path opacity="0.11" d="M264.75 186.25C266.131 186.25 267.25 185.131 267.25 183.75C267.25 182.369 266.131 181.25 264.75 181.25C263.369 181.25 262.25 182.369 262.25 183.75C262.25 185.131 263.369 186.25 264.75 186.25Z" fill="#8072CF"/>
<path opacity="0.11" d="M243.25 97.25C244.631 97.25 245.75 96.1307 245.75 94.75C245.75 93.3693 244.631 92.25 243.25 92.25C241.869 92.25 240.75 93.3693 240.75 94.75C240.75 96.1307 241.869 97.25 243.25 97.25Z" fill="#8072CF"/>
<path opacity="0.1" d="M275.75 11.25C277.131 11.25 278.25 10.1307 278.25 8.75C278.25 7.36929 277.131 6.25 275.75 6.25C274.369 6.25 273.25 7.36929 273.25 8.75C273.25 10.1307 274.369 11.25 275.75 11.25Z" fill="#8072CF"/>
</svg>
