<svg width="24" height="20" viewBox="0 0 24 20" fill="none" xmlns="http://www.w3.org/2000/svg">
<path d="M19.9525 6.18638C19.9647 6.36303 19.9647 6.53969 19.9647 6.71798C19.9647 12.1504 15.8371 18.4156 8.28966 18.4156V18.4124C6.06013 18.4156 3.8769 17.7757 2 16.5693C2.32419 16.6083 2.65001 16.6279 2.97664 16.6287C4.82429 16.6303 6.61913 16.0092 8.07272 14.8654C6.31688 14.832 4.77717 13.6849 4.23928 12.0104C4.85436 12.1292 5.48812 12.1048 6.09181 11.9395C4.17753 11.552 2.80033 9.86687 2.80033 7.9098C2.80033 7.89189 2.80033 7.8748 2.80033 7.8577C3.37071 8.17601 4.00934 8.35267 4.6626 8.3722C2.85964 7.16491 2.30388 4.76172 3.39265 2.8828C5.47593 5.45125 8.54966 7.01268 11.8493 7.17794C11.5186 5.75002 11.9703 4.25373 13.0364 3.24996C14.689 1.69342 17.2882 1.7732 18.8418 3.42824C19.7607 3.2467 20.6415 2.90885 21.4475 2.43017C21.1412 3.38184 20.5001 4.19023 19.6437 4.70392C20.457 4.60786 21.2517 4.38968 22 4.05672C21.4491 4.88383 20.7552 5.6043 19.9525 6.18638Z" fill="white"/>
</svg>
